<?xml version="1.0" encoding="UTF-8"?>
<svg version="1.1" xmlns="http://www.w3.org/2000/svg" width="1400" height="1050">
<path d="M0 0 C462 0 924 0 1400 0 C1400 346.5 1400 693 1400 1050 C938 1050 476 1050 0 1050 C0 703.5 0 357 0 0 Z " fill="#000000" transform="translate(0,0)"/>
<path d="M0 0 C1.00254318 -0.01197418 2.00508636 -0.02394836 3.03800964 -0.0362854 C6.33831769 -0.06837778 9.63730675 -0.06366364 12.93774414 -0.05566406 C15.24028475 -0.06411639 17.54282127 -0.0737575 19.84535217 -0.08453369 C24.66626035 -0.10091179 29.48670918 -0.09822632 34.30761719 -0.08300781 C40.47615663 -0.0657213 46.64299455 -0.10287409 52.81128597 -0.15526962 C57.56497079 -0.18839694 62.318248 -0.18894398 67.07202339 -0.18012238 C69.34575758 -0.18048164 71.61951781 -0.19173564 73.89314079 -0.21422577 C77.07698843 -0.24154109 80.25763568 -0.22401396 83.44140625 -0.1953125 C84.37412354 -0.21262421 85.30684082 -0.22993591 86.26782227 -0.24777222 C92.49882348 -0.12792254 95.68761969 1.4936127 100.1915369 5.78756332 C102.97067896 9.08506521 104.3216379 12.66348892 105.78540039 16.67871094 C106.75927687 19.13931762 107.73871721 21.59725122 108.72290039 24.05371094 C109.10768555 25.02570435 109.10768555 25.02570435 109.50024414 26.01733398 C111.39779066 30.79294586 113.47110933 35.46558325 115.63305664 40.12792969 C117.14275742 43.46974193 118.47957002 46.86962512 119.82446289 50.28027344 C122.07546663 55.89863235 124.59892142 61.35024919 127.34790039 66.74121094 C129.17988927 70.35492071 130.68800654 73.95305891 132.04711914 77.76464844 C132.80519688 79.73003516 133.69403286 81.557577 134.66040039 83.42871094 C136.78645143 87.56891559 138.53268324 91.82726787 140.29711914 96.13183594 C142.08217413 100.38598272 143.96123351 104.59389001 145.84790039 108.80371094 C148.32285703 114.3329059 150.72040626 119.86972819 152.92211914 125.51464844 C154.11615156 128.50783379 155.42987944 131.44225905 156.75805664 134.37792969 C157.5666875 136.18889385 158.35225395 138.01015766 159.12915039 139.83496094 C161.45307555 145.27540583 163.92756074 150.64932749 166.38110352 156.03222656 C169.01653701 161.85344723 171.44739824 167.73243311 173.78540039 173.67871094 C176.09380907 179.41183338 178.41958497 185.07362502 181.28540039 190.55371094 C188.78540039 205.17275856 188.78540039 205.17275856 188.78540039 211.67871094 C193.85174198 209.3984681 197.84615358 206.49377228 202.09790039 202.99121094 C202.78070068 202.43320801 203.46350098 201.87520508 204.16699219 201.30029297 C212.91479078 194.0497042 221.62983809 186.34603206 229.34472656 177.98974609 C230.78540039 176.67871094 230.78540039 176.67871094 233.28540039 176.36621094 C235.78540039 176.67871094 235.78540039 176.67871094 238.78540039 178.67871094 C242.61916748 194.80308428 241.17255039 214.32216027 235.4777832 229.79589844 C234.81250521 231.60500419 234.21531443 233.43870787 233.62133789 235.27246094 C230.91568586 243.15014168 226.88221409 249.15177863 221.78540039 255.67871094 C221.04174848 256.7941888 220.30921644 257.91734018 219.59790039 259.05371094 C212.06322015 269.96600646 199.95736102 278.81489199 188.78540039 285.67871094 C187.83020508 286.28457031 186.87500977 286.89042969 185.89086914 287.51464844 C179.34066251 291.53070551 172.59739174 294.55263566 165.43774414 297.27246094 C162.18861188 298.52346373 159.02760806 299.88859002 155.84790039 301.30371094 C149.34565488 304.04149852 142.70038216 305.56450542 135.84448242 307.1472168 C133.67329061 307.70764893 131.58305724 308.41513519 129.45727539 309.12792969 C121.55709816 311.52456205 113.3288694 312.35309643 105.16040039 313.36621094 C104.2819043 313.47643585 103.4034082 313.58666077 102.49829102 313.70022583 C85.50207102 315.79379307 68.90886032 316.42860862 51.78540039 315.67871094 C50.72546875 315.63327148 49.66553711 315.58783203 48.57348633 315.54101562 C19.61809592 314.10206548 -9.37943593 308.80093455 -36.21459961 297.67871094 C-38.08890291 296.92697153 -39.96385814 296.17685459 -41.83959961 295.42871094 C-42.61561523 295.11417969 -43.39163086 294.79964844 -44.19116211 294.47558594 C-45.84584679 293.82393406 -47.52748124 293.24108373 -49.21459961 292.67871094 C-49.21459961 292.01871094 -49.21459961 291.35871094 -49.21459961 290.67871094 C-51.03991211 290.36933594 -51.03991211 290.36933594 -52.90209961 290.05371094 C-61.91525514 288.039834 -70.04470659 283.27840338 -78.21459961 279.11621094 C-83.81153491 276.28657995 -89.46522713 273.96156715 -95.34350586 271.78808594 C-97.68041955 270.8851152 -99.82313779 269.91794329 -102.02709961 268.74121094 C-106.24754622 266.54865859 -110.6554955 264.94419395 -115.11767578 263.31176758 C-119.52529531 261.69644849 -123.90098156 260.0192958 -128.26147461 258.28027344 C-147.78231318 250.52429162 -166.95158397 245.09042341 -187.58959961 241.36621094 C-188.29785889 241.23670044 -189.00611816 241.10718994 -189.73583984 240.97375488 C-199.90156631 239.13580004 -209.89031367 238.11702569 -220.21459961 237.67871094 C-221.17994629 237.62835693 -222.14529297 237.57800293 -223.13989258 237.52612305 C-256.12044288 236.00578663 -292.99256474 242.23567267 -323.32397461 255.42480469 C-329.27817805 258.00764159 -335.63644758 260.50097994 -342.21459961 259.67871094 C-344.21459961 257.67871094 -344.21459961 257.67871094 -344.27709961 254.74121094 C-343.26299441 248.99063792 -339.46457969 244.3838103 -336.21459961 239.67871094 C-335.57135742 238.71191406 -334.92811523 237.74511719 -334.26538086 236.74902344 C-330.75130363 231.54789445 -330.75130363 231.54789445 -329.21459961 229.67871094 C-328.55459961 229.67871094 -327.89459961 229.67871094 -327.21459961 229.67871094 C-326.94905273 229.09734375 -326.68350586 228.51597656 -326.40991211 227.91699219 C-322.67343757 220.92026045 -316.17969583 215.72433182 -310.21459961 210.67871094 C-308.92280733 209.51218336 -307.63114117 208.34551609 -306.33959961 207.17871094 C-297.77952807 199.73012155 -288.14376832 194.08776855 -278.21459961 188.67871094 C-277.61969727 188.34726074 -277.02479492 188.01581055 -276.41186523 187.67431641 C-259.04423361 178.06579156 -239.70060629 172.17571067 -220.21459961 168.67871094 C-218.46276367 168.34226562 -218.46276367 168.34226562 -216.67553711 167.99902344 C-178.24683423 161.88726895 -138.31330749 169.23345609 -102.34350586 182.91699219 C-100.31671427 183.6421745 -98.31104523 184.19638518 -96.21459961 184.67871094 C-96.0328418 184.08703125 -95.85108398 183.49535156 -95.66381836 182.88574219 C-95.41245117 182.09554687 -95.16108398 181.30535156 -94.90209961 180.49121094 C-94.6584668 179.71390625 -94.41483398 178.93660156 -94.16381836 178.13574219 C-93.21459961 175.67871094 -93.21459961 175.67871094 -91.75366211 173.25683594 C-90.07648761 170.44735581 -89.01135639 167.69239728 -87.90209961 164.61621094 C-85.81205425 159.03855976 -83.34602883 153.80901742 -80.62084961 148.51855469 C-78.93828665 145.12071227 -77.57459524 141.65219957 -76.21459961 138.11621094 C-74.79631752 134.65914835 -73.07410082 131.37712794 -71.37084961 128.05371094 C-70.0267257 125.29280777 -68.98537503 122.48987784 -67.95678711 119.60058594 C-67.18047788 117.59035362 -66.26500332 115.71825302 -65.27709961 113.80371094 C-63.7785935 110.89717456 -62.51445557 107.98041147 -61.33959961 104.92871094 C-59.87786665 101.17160045 -58.20022401 97.62959846 -56.33959961 94.05371094 C-53.97588403 89.43264698 -52.08405684 84.80327682 -50.33959961 79.92871094 C-48.01438359 73.45110111 -45.19302106 67.38506423 -42.04199219 61.27099609 C-39.80456131 56.91716417 -37.87632592 52.5446209 -36.14038086 47.96386719 C-35.13141281 45.47337644 -33.95035116 43.1268461 -32.71459961 40.74121094 C-30.05101949 35.55423914 -28.09082007 30.19207385 -26.21459961 24.67871094 C-25.55459961 24.67871094 -24.89459961 24.67871094 -24.21459961 24.67871094 C-23.98772461 23.39996094 -23.76084961 22.12121094 -23.52709961 20.80371094 C-21.75036721 12.981153 -19.11106807 6.44328242 -12.34095573 1.75389862 C-8.38400796 -0.24692404 -4.35474979 -0.03251389 0 0 Z " fill="#3ED6FD" transform="translate(684.214599609375,314.3212890625)"/>
<path d="M0 0 C0.69732239 -0.00489441 1.39464478 -0.00978882 2.11309814 -0.01483154 C14.61336925 -0.05085127 26.21313496 1.62081668 38.33935547 4.74755859 C40.93399504 5.38959823 43.53278352 5.92690557 46.15625 6.4375 C65.0712266 10.12849857 83.75038052 17.12053 101.53271484 24.42675781 C110.52050477 28.10217079 119.68527287 31.24658225 128.875 34.375 C128.875 35.035 128.875 35.695 128.875 36.375 C129.52726562 36.56835938 130.17953125 36.76171875 130.8515625 36.9609375 C131.72554687 37.22132813 132.59953125 37.48171875 133.5 37.75 C134.78777344 38.13285156 134.78777344 38.13285156 136.1015625 38.5234375 C142.74394235 40.56292878 148.98827832 43.1239605 155.33984375 45.9375 C158.84066249 47.36103735 162.22913705 48.4064949 165.875 49.375 C165.875 50.035 165.875 50.695 165.875 51.375 C166.90633057 51.54938599 166.90633057 51.54938599 167.95849609 51.72729492 C171.28520864 52.46610025 174.34327731 53.553893 177.5390625 54.73828125 C178.1717807 54.9715361 178.8044989 55.20479095 179.45639038 55.44511414 C181.47222852 56.18911011 183.48614192 56.93816308 185.5 57.6875 C186.82929899 58.17938276 188.15872507 58.67092222 189.48828125 59.16210938 C190.13867371 59.40253967 190.78906616 59.64296997 191.45916748 59.89068604 C192.76093035 60.37186155 194.06272878 60.85294088 195.36456299 61.33392334 C198.22494261 62.39147126 201.08328118 63.45359542 203.93652344 64.53027344 C209.84613302 66.73727652 215.74958697 68.50070406 221.875 70 C223.52215672 70.40348955 225.16806191 70.81213222 226.8125 71.2265625 C227.52277344 71.40010254 228.23304688 71.57364258 228.96484375 71.75244141 C230.875 72.375 230.875 72.375 233.875 74.375 C234.0625 77.5 234.0625 77.5 233.875 80.375 C225.7261778 84.64762569 217.5011071 88.18857521 208.875 91.375 C208.14539063 91.6740625 207.41578125 91.973125 206.6640625 92.28125 C181.78797593 102.43475472 146.5222707 99.1824409 120.875 93.375 C119.65876953 93.10123535 118.44253906 92.8274707 117.18945312 92.54541016 C99.23141508 88.44887484 81.73301682 83.28992877 64.25097656 77.48193359 C56.50808118 74.94315086 48.70646171 72.59106354 40.91015625 70.22265625 C37.15419633 69.08159764 33.41345016 67.90714835 29.68359375 66.68359375 C9.21783647 60.04698649 -10.58995317 58.01247537 -32 58 C-32.91509338 57.99800598 -33.83018677 57.99601196 -34.77301025 57.99395752 C-44.42736852 57.99634083 -53.67923351 58.16899112 -63.125 60.375 C-64.49596937 60.63144486 -65.86832286 60.88064225 -67.2421875 61.12109375 C-74.73310815 62.49936085 -82.14884282 64.01320496 -89.55078125 65.82421875 C-92.125 66.375 -92.125 66.375 -95.125 66.375 C-95.125 67.035 -95.125 67.695 -95.125 68.375 C-96.1871875 68.76171875 -97.249375 69.1484375 -98.34375 69.546875 C-108.96475214 73.43708225 -108.96475214 73.43708225 -119.125 78.375 C-119.97191406 78.81457031 -120.81882812 79.25414062 -121.69140625 79.70703125 C-133.59367303 85.98096603 -145.72065182 93.75333443 -154.125 104.375 C-155.115 104.87 -155.115 104.87 -156.125 105.375 C-156.455 106.365 -156.785 107.355 -157.125 108.375 C-159.67458536 110.85376354 -161.25192684 112.25317584 -164.8125 112.75 C-167.125 112.375 -167.125 112.375 -169.125 110.375 C-169.46907089 101.70769056 -166.59712774 93.64220758 -162.125 86.375 C-161.6254358 85.07012738 -161.14796729 83.75667657 -160.6875 82.4375 C-159.30557172 78.60446734 -157.62395794 75.59946185 -155.125 72.375 C-154.465 72.375 -153.805 72.375 -153.125 72.375 C-152.88394531 71.6634375 -152.64289063 70.951875 -152.39453125 70.21875 C-150.93592601 66.95147425 -149.10504756 64.61835103 -146.8125 61.875 C-146.05324219 60.9571875 -145.29398437 60.039375 -144.51171875 59.09375 C-142.14261079 56.39506074 -139.76226954 53.81348038 -137.125 51.375 C-136.465 51.375 -135.805 51.375 -135.125 51.375 C-135.125 50.715 -135.125 50.055 -135.125 49.375 C-133.734375 48.2265625 -133.734375 48.2265625 -131.875 47 C-129.6797132 45.50120981 -127.89084993 44.14084993 -126 42.25 C-123.88554865 40.13554865 -121.76579485 38.76489203 -119.125 37.375 C-118.465 37.375 -117.805 37.375 -117.125 37.375 C-117.125 36.715 -117.125 36.055 -117.125 35.375 C-101.96370968 24.375 -101.96370968 24.375 -95.125 24.375 C-94.63 22.89 -94.63 22.89 -94.125 21.375 C-91.81640625 20.234375 -91.81640625 20.234375 -88.6875 19.125 C-87.5015625 18.69703125 -86.315625 18.2690625 -85.09375 17.828125 C-84.44921875 17.59673828 -83.8046875 17.36535156 -83.140625 17.12695312 C-81.08030262 16.3583251 -79.05739329 15.5262958 -77.03125 14.671875 C-65.32514872 9.78798749 -53.54476534 6.85425751 -41.125 4.375 C-40.3422168 4.21515625 -39.55943359 4.0553125 -38.75292969 3.890625 C-25.79354218 1.2567416 -13.23015922 0.08568908 0 0 Z " fill="#0185E3" transform="translate(447.125,599.625)"/>
<path d="M0 0 C0.66 0 1.32 0 2 0 C2.75313038 1.62355155 3.50228585 3.24894694 4.25 4.875 C4.66765625 5.77992188 5.0853125 6.68484375 5.515625 7.6171875 C7.06929029 11.15790891 8.49850753 14.734772 9.92480469 18.328125 C11.71224855 22.76994734 13.60660237 27.16503553 15.5 31.5625 C15.87769531 32.44357422 16.25539063 33.32464844 16.64453125 34.23242188 C18.8607049 39.40052307 18.8607049 39.40052307 21.16308594 44.53051758 C21.52692383 45.32224365 21.89076172 46.11396973 22.265625 46.9296875 C22.59336914 47.6294873 22.92111328 48.32928711 23.25878906 49.05029297 C24.28458774 51.7485895 24.29198591 54.15313733 24 57 C24.66 57 25.32 57 26 57 C26.98766013 59.20486819 27.96518516 61.41337311 28.9375 63.625 C29.21529297 64.24246094 29.49308594 64.85992187 29.77929688 65.49609375 C31.45160411 69.32426694 32.4961308 72.85424076 33 77 C33.66 77 34.32 77 35 77 C35.27972656 77.76441406 35.55945313 78.52882813 35.84765625 79.31640625 C38.18900535 85.57255128 40.69786437 91.65624328 43.5625 97.6875 C46.2669373 103.38479997 48.73120467 109.11666001 51 115 C55.12845452 125.64557481 55.12845452 125.64557481 60.01953125 135.953125 C61.25888538 138.54046191 62.24413409 141.18823525 63.25 143.875 C65.33005551 149.40678848 67.63963088 154.79757899 70.0625 160.1875 C77.83198189 177.50219052 77.83198189 177.50219052 79 184 C77.500823 184.31642465 76.00059887 184.62788849 74.5 184.9375 C73.6646875 185.11152344 72.829375 185.28554688 71.96875 185.46484375 C65.47362819 186.63567492 59.10994703 187.17754733 52.5234375 187.2734375 C51.3304026 187.29216164 51.3304026 187.29216164 50.11326599 187.31126404 C29.80636314 187.56751538 10.90339011 186.35311811 -9 182 C-10.54880859 181.67177246 -10.54880859 181.67177246 -12.12890625 181.33691406 C-21.23527384 179.38682166 -30.17875542 177.25787325 -38.859375 173.83203125 C-41.21516821 172.87473609 -41.21516821 172.87473609 -44.625 172 C-48.05904589 170.98250492 -51.13210108 169.64351077 -54.37890625 168.15234375 C-59.50354299 165.89933654 -64.76327627 163.97490045 -70 162 C-69.42086439 158.42446713 -68.46992287 155.67859163 -66.75 152.5 C-64.16107075 147.49374199 -62.16089651 142.36655737 -60.18359375 137.09375 C-58.90968635 133.76393263 -57.49685719 130.5282104 -56.01953125 127.28515625 C-54.85272923 124.66991034 -53.77110659 122.02577704 -52.6875 119.375 C-50.51647509 114.13001627 -48.15446664 108.98950982 -45.73168945 103.85791016 C-43.2183507 98.51613154 -40.83720953 93.12299658 -38.48925781 87.70678711 C-36.83128649 83.88549107 -35.12975919 80.09071589 -33.375 76.3125 C-30.62594679 70.32120795 -28.30617755 64.17270503 -26 58 C-25.34 58 -24.68 58 -24 58 C-23.773125 56.72125 -23.54625 55.4425 -23.3125 54.125 C-22.29016642 49.49187121 -20.47868251 45.68325956 -18.27734375 41.50390625 C-17.10094263 39.19787225 -16.1188734 36.91329197 -15.1875 34.5 C-10.64088348 22.80077943 -5.22615031 11.40707808 0 0 Z " fill="#000202" transform="translate(723,371)"/>
<path d="M0 0 C0.45439453 1.30710937 0.45439453 1.30710937 0.91796875 2.640625 C4.41769684 12.59062116 8.08107633 22.36597301 12.9375 31.75 C16.03442248 37.80780444 18.38959904 44.04803849 20.703125 50.43359375 C21.47939155 52.56832675 22.29093187 54.69144807 23.171875 56.78515625 C24 59 24 59 24 62 C24.66 62 25.32 62 26 62 C26.84770456 64.18283925 27.67807547 66.36996079 28.5 68.5625 C29.19609375 70.38974609 29.19609375 70.38974609 29.90625 72.25390625 C31.02451091 76.08394988 31.33565408 79.03539016 31 83 C28.78136971 85.90717073 27.48055071 86.83981643 24 88 C21.97253129 88.10903408 19.94169499 88.15893328 17.91137695 88.17700195 C16.65609695 88.18983719 15.40081696 88.20267242 14.10749817 88.21589661 C12.73442989 88.2240663 11.36135713 88.23150959 9.98828125 88.23828125 C8.9482599 88.24439454 8.9482599 88.24439454 7.88722801 88.25063133 C4.21461665 88.27147928 0.54204247 88.28578432 -3.13061523 88.29516602 C-6.90890883 88.30620507 -10.68660937 88.34057866 -14.46469402 88.38033772 C-17.3825229 88.40659153 -20.30021261 88.41486573 -23.21814919 88.41844749 C-24.60991211 88.42329389 -26.00166964 88.434852 -27.39331627 88.45348549 C-36.50584147 88.56787693 -43.02965268 88.25518943 -50.171875 82.140625 C-53.90572668 77.66739675 -56.79507182 73.39766418 -59 68 C-59.44601562 66.92234375 -59.89203125 65.8446875 -60.3515625 64.734375 C-63.79872328 55.83723378 -66.01299498 48.43051275 -62.375 39.3125 C-60.27041648 35.10333296 -57.65111693 31.02799298 -54 28 C-53.01 28 -52.02 28 -51 28 C-51 27.34 -51 26.68 -51 26 C-48.3773768 24.66180502 -45.75213401 23.3292849 -43.125 22 C-42.37863281 21.6184375 -41.63226562 21.236875 -40.86328125 20.84375 C-39.79013672 20.30234375 -39.79013672 20.30234375 -38.6953125 19.75 C-38.03547363 19.41484375 -37.37563477 19.0796875 -36.69580078 18.734375 C-35 18 -35 18 -33 18 C-33 17.34 -33 16.68 -33 16 C-32.09121094 15.5153125 -31.18242188 15.030625 -30.24609375 14.53125 C-29.64571289 14.21091797 -29.04533203 13.89058594 -28.42675781 13.56054688 C-27.08929842 12.84749783 -25.7514001 12.13527155 -24.41308594 11.42382812 C-20.85459774 9.53062589 -17.30454582 7.62422357 -13.76953125 5.6875 C-13.09543213 5.32076172 -12.42133301 4.95402344 -11.72680664 4.57617188 C-10.42768581 3.86893159 -9.13119897 3.15682731 -7.83764648 2.43945312 C-5.00401598 0.90345928 -3.27702958 0 0 0 Z " fill="#0185E3" transform="translate(915,620)"/>
<path d="M0 0 C1.00896835 -0.0071553 2.01793671 -0.01431061 3.05747986 -0.02168274 C6.37708438 -0.0385284 9.69533096 -0.01919445 13.01489258 0.00219727 C15.32701224 0.00136839 17.63913185 -0.0010917 19.95124817 -0.00511169 C24.78896897 -0.00796662 29.62622598 0.00670595 34.46386719 0.03417969 C40.66828514 0.06831861 46.87187704 0.06222202 53.07633495 0.04351711 C57.84697881 0.03295774 62.61742988 0.04187443 67.3880558 0.05690193 C69.6762262 0.06208812 71.96441669 0.06159667 74.25258446 0.05535698 C77.4461755 0.04991555 80.63857584 0.07024455 83.83203125 0.09765625 C84.77912964 0.09113037 85.72622803 0.08460449 86.70202637 0.07788086 C93.13059769 0.17185484 93.13059769 0.17185484 96.34004211 2.66444397 C96.79606308 3.31344162 97.25208405 3.96243927 97.72192383 4.63110352 C96.94098358 4.46844498 96.16004333 4.30578644 95.35543823 4.13819885 C90.74028071 3.49410484 86.23934655 3.4998084 81.58569336 3.51757812 C80.58019943 3.5174321 79.57470551 3.51728607 78.53874207 3.51713562 C75.2273846 3.51783025 71.91608393 3.52560158 68.60473633 3.53344727 C66.3040266 3.53531304 64.00331647 3.53673619 61.7026062 3.53773499 C55.65607602 3.54154757 49.60956998 3.55136713 43.56304932 3.56243896 C37.38944831 3.57268014 31.21584339 3.5772384 25.04223633 3.58227539 C12.93545491 3.59299052 0.82869138 3.61005184 -11.27807617 3.63110352 C-11.27807617 4.29110352 -11.27807617 4.95110352 -11.27807617 5.63110352 C-12.26807617 5.63110352 -13.25807617 5.63110352 -14.27807617 5.63110352 C-13.94807617 6.95110352 -13.61807617 8.27110352 -13.27807617 9.63110352 C-14.59807617 8.97110352 -15.91807617 8.31110352 -17.27807617 7.63110352 C-17.27807617 6.97110352 -17.27807617 6.31110352 -17.27807617 5.63110352 C-11.63241582 0.52294709 -7.45035249 -0.09257028 0 0 Z " fill="#49DBFE" transform="translate(684.278076171875,314.368896484375)"/>
<path d="M0 0 C1.2325074 -0.002062 1.2325074 -0.002062 2.48991394 -0.00416565 C3.38255447 -0.00057037 4.27519501 0.0030249 5.19488525 0.00672913 C6.61490593 0.00651009 6.61490593 0.00651009 8.06361389 0.00628662 C11.19105322 0.00698299 14.3184329 0.01476253 17.44586182 0.02259827 C19.61490852 0.02446342 21.78395565 0.02588687 23.95300293 0.02688599 C29.66090051 0.03070346 35.36877263 0.0405272 41.07666016 0.05158997 C46.90154679 0.06182062 52.72643754 0.06638716 58.55133057 0.07142639 C69.97972717 0.08215013 81.40810487 0.09921735 92.83648682 0.12025452 C92.83648682 0.78025452 92.83648682 1.44025452 92.83648682 2.12025452 C93.82648682 2.45025452 94.81648682 2.78025452 95.83648682 3.12025452 C44.35648682 3.61525452 44.35648682 3.61525452 -8.16351318 4.12025452 C-8.16351318 3.13025452 -8.16351318 2.14025452 -8.16351318 1.12025452 C-5.37117689 0.32982074 -2.89865964 -0.00375474 0 0 Z " fill="#0A3342" transform="translate(680.1635131835938,311.87974548339844)"/>
<path d="M0 0 C-17.30769231 8.91346154 -17.30769231 8.91346154 -26 10 C-26.33 11.32 -26.66 12.64 -27 14 C-29.31 14.33 -31.62 14.66 -34 15 C-34 15.66 -34 16.32 -34 17 C-38.38461538 20 -38.38461538 20 -41 20 C-41.0928125 20.8971875 -41.0928125 20.8971875 -41.1875 21.8125 C-42.32979642 24.88791343 -44.17828061 25.45477272 -47 27 C-47.515625 27.556875 -48.03125 28.11375 -48.5625 28.6875 C-50 30 -50 30 -54 30 C-54.268125 30.804375 -54.53625 31.60875 -54.8125 32.4375 C-55.204375 33.283125 -55.59625 34.12875 -56 35 C-57.485 35.495 -57.485 35.495 -59 36 C-59.4021875 37.2065625 -59.4021875 37.2065625 -59.8125 38.4375 C-61 41 -61 41 -64.125 42.3125 C-65.07375 42.539375 -66.0225 42.76625 -67 43 C-65.625 41 -65.625 41 -64 39 C-63.34 39 -62.68 39 -62 39 C-61.67 37.68 -61.34 36.36 -61 35 C-60.34 35 -59.68 35 -59 35 C-58.67 34.01 -58.34 33.02 -58 32 C-57.34 32 -56.68 32 -56 32 C-55.67 31.01 -55.34 30.02 -55 29 C-45.76094336 20.3383844 -35.1644019 13.83521856 -24 8 C-23.15179688 7.55527344 -22.30359375 7.11054687 -21.4296875 6.65234375 C-5.01217865 -1.76227286 -5.01217865 -1.76227286 0 0 Z " fill="#002143" transform="translate(352,669)"/>
<path d="M0 0 C0.7049762 -0.00100708 1.40995239 -0.00201416 2.1362915 -0.00305176 C24.84722942 0.0187567 47.38413915 3.08092052 69 10.25 C69 10.58 69 10.91 69 11.25 C62.375 11.375 62.375 11.375 59 10.25 C59 10.91 59 11.57 59 12.25 C58.01 11.92 57.02 11.59 56 11.25 C55.505 10.26 55.505 10.26 55 9.25 C52.73870072 8.66392501 50.44682351 8.19493217 48.1484375 7.77734375 C47.45618073 7.64936905 46.76392395 7.52139435 46.0506897 7.38954163 C43.82686825 6.98066659 41.60103428 6.58413097 39.375 6.1875 C37.89699415 5.91678577 36.41912749 5.64531038 34.94140625 5.37304688 C25.48956363 3.64440985 16.40467526 2.09156992 6.78515625 2.15234375 C5.50154457 2.15446617 5.50154457 2.15446617 4.19200134 2.15663147 C1.48213069 2.1621901 -1.22765468 2.17473475 -3.9375 2.1875 C-5.78450401 2.19252035 -7.63150932 2.19708232 -9.47851562 2.20117188 C-13.98570951 2.21214595 -18.49284034 2.2293817 -23 2.25 C-23 1.92 -23 1.59 -23 1.25 C-15.35495804 0.0408352 -7.72679346 0.00766525 0 0 Z " fill="#44ACC4" transform="translate(495,480.75)"/>
<path d="M0 0 C13.49077412 -0.09260248 26.98147287 -0.16371565 40.47249985 -0.20724869 C46.73666341 -0.22814037 53.00060985 -0.2564874 59.26464844 -0.30175781 C65.3076415 -0.34515836 71.35042546 -0.36912519 77.39356232 -0.37950897 C79.70130964 -0.38691069 82.00904528 -0.40136418 84.3167038 -0.42292023 C87.54439701 -0.45187649 90.77122164 -0.45595916 93.99902344 -0.45410156 C94.95711914 -0.46848267 95.91521484 -0.48286377 96.90234375 -0.49768066 C103.40849718 -0.45705348 103.40849718 -0.45705348 106.62506104 2.02838135 C107.07879089 2.6790155 107.53252075 3.32964966 108 4 C102.25 3.125 102.25 3.125 100 2 C98.65727897 1.89701001 97.30971747 1.85359401 95.96310425 1.84178162 C95.11893951 1.8319928 94.27477478 1.82220398 93.4050293 1.81211853 C92.477146 1.80636307 91.5492627 1.8006076 90.59326172 1.79467773 C89.12978806 1.77982834 89.12978806 1.77982834 87.63674927 1.76467896 C84.40108698 1.73300689 81.16540999 1.70828398 77.9296875 1.68359375 C75.69051728 1.66302915 73.45135099 1.64203282 71.21218872 1.62062073 C65.31031467 1.56534904 59.40840529 1.51596226 53.50646973 1.46777344 C47.48735397 1.41759559 41.46828971 1.36189015 35.44921875 1.30664062 C23.63285645 1.19899672 11.81644951 1.09756562 0 1 C0 0.67 0 0.34 0 0 Z " fill="#54C5E2" transform="translate(674,315)"/>
<path d="M0 0 C1.26166992 0.05945801 1.26166992 0.05945801 2.54882812 0.12011719 C7.03911663 0.3423207 11.51899013 0.63097566 16 1 C16 1.33 16 1.66 16 2 C14.68507568 2.01981934 13.37015137 2.03963867 12.01538086 2.06005859 C7.06696639 2.1369916 2.11881302 2.22556209 -2.8293457 2.31738281 C-4.95787343 2.35531474 -7.08645749 2.39022495 -9.21508789 2.421875 C-29.37469007 1.51530756 -29.37469007 1.51530756 -48 7 C-50.91796875 6.9765625 -50.91796875 6.9765625 -54.1875 6.625 C-55.27417969 6.51414062 -56.36085938 6.40328125 -57.48046875 6.2890625 C-58.31191406 6.19367187 -59.14335937 6.09828125 -60 6 C-60 5.67 -60 5.34 -60 5 C-39.95002364 1.85254212 -20.35940258 -1.02817338 0 0 Z " fill="#0C3B49" transform="translate(464,551)"/>
<path d="M0 0 C0.33 0.66 0.66 1.32 1 2 C0.67 2.66 0.34 3.32 0 4 C0.66 4 1.32 4 2 4 C1.91291331 5.45945288 1.80473093 6.91765868 1.6875 8.375 C1.62949219 9.18710937 1.57148438 9.99921875 1.51171875 10.8359375 C1 13 1 13 -2 15 C-0.02 14.67 1.96 14.34 4 14 C4 13.34 4 12.68 4 12 C7.3 12 10.6 12 14 12 C10.09435435 15.90564565 3.86224464 16.83372816 -1.5 17.3125 C-4 17 -4 17 -6 15 C-5.87665885 8.83294241 -3.43559856 4.8808319 0 0 Z " fill="#43D5F5" transform="translate(346,557)"/>
<path d="M0 0 C0.66 2.64 1.32 5.28 2 8 C3.65 8 5.3 8 7 8 C7 8.66 7 9.32 7 10 C7.99 10.33 8.98 10.66 10 11 C0.59562674 9.41518895 -8.38794309 4.98335449 -17 1 C-11.11178475 -0.51705109 -6.01846128 -1.32112565 0 0 Z " fill="#42C3E0" transform="translate(589,578)"/>
<path d="M0 0 C45.55305466 -0.83601286 45.55305466 -0.83601286 67 4 C67 4.33 67 4.66 67 5 C64.22852482 4.88414075 61.45819362 4.75746344 58.6875 4.625 C57.53797852 4.57859375 57.53797852 4.57859375 56.36523438 4.53125 C52.17757635 4.32273591 48.22629802 3.87785111 44.125 3 C35.62404149 1.35937248 26.94064489 1.52923181 18.3125 1.375 C16.53188365 1.33673855 14.75128419 1.29768235 12.97070312 1.2578125 C8.6472756 1.16271307 4.3237619 1.0783648 0 1 C0 0.67 0 0.34 0 0 Z " fill="#002144" transform="translate(395,657)"/>
<path d="M0 0 C0.33 0 0.66 0 1 0 C4.15136906 17.64250058 3.22077479 36.20390807 -3 53 C-4.4366008 50.70976684 -5.10036517 49.55401575 -4.609375 46.84375 C-4.32578125 46.0703125 -4.0421875 45.296875 -3.75 44.5 C-0.22636038 34.02712675 0.27994554 23.72729588 0.125 12.75 C0.11597656 11.51636719 0.10695313 10.28273438 0.09765625 9.01171875 C0.07436851 6.00759976 0.04166756 3.00391057 0 0 Z " fill="#46BCD4" transform="translate(922,493)"/>
<path d="M0 0 C-3.95644408 2.78946708 -6.63106904 3.36904693 -11.44262695 3.34057617 C-12.72357742 3.34034958 -14.00452789 3.34012299 -15.32429504 3.33988953 C-16.71229404 3.32457193 -18.10028943 3.30892398 -19.48828125 3.29296875 C-20.91602634 3.28736926 -22.34377722 3.28310083 -23.77153015 3.28010559 C-27.51828088 3.26868449 -31.26467936 3.2392414 -35.0112915 3.20599365 C-38.83885941 3.17523342 -42.66648458 3.16158758 -46.49414062 3.14648438 C-53.99625384 3.11436861 -61.49807745 3.06320597 -69 3 C-69 2.67 -69 2.34 -69 2 C-68.2616391 1.99191315 -67.5232782 1.98382629 -66.76254272 1.97549438 C-59.78881846 1.89740755 -52.81526397 1.81007464 -45.84178734 1.71247292 C-42.25703136 1.6626232 -38.67230324 1.61629272 -35.08740234 1.578125 C-31.62484759 1.54112837 -28.16253251 1.49473057 -24.70018387 1.44193649 C-22.74277862 1.41450867 -20.78524615 1.39670411 -18.82772827 1.37905884 C-17.02654037 1.3492543 -17.02654037 1.3492543 -15.18896484 1.31884766 C-13.61011002 1.29886215 -13.61011002 1.29886215 -11.99935913 1.2784729 C-8.91506257 1.1088586 -8.91506257 1.1088586 -5.8006897 -0.08242798 C-3 -1 -3 -1 0 0 Z " fill="#127FC8" transform="translate(944,705)"/>
<path d="M0 0 C0 0.33 0 0.66 0 1 C-0.90355225 1.02505615 -1.80710449 1.0501123 -2.73803711 1.07592773 C-6.0796428 1.17087317 -9.42106252 1.27011621 -12.76245117 1.37231445 C-14.2106424 1.4157163 -15.65888654 1.45738744 -17.10717773 1.49731445 C-19.18489559 1.55489062 -21.26234573 1.61862028 -23.33984375 1.68359375 C-24.59144287 1.72025146 -25.84304199 1.75690918 -27.13256836 1.79467773 C-29.89630504 1.67803906 -29.89630504 1.67803906 -31 3 C-32.9951727 3.25744164 -34.99112677 3.51199834 -36.9921875 3.71875 C-39.20138785 3.9662595 -39.20138785 3.9662595 -42 5 C-43.89952346 4.91478259 -45.79663573 4.76270916 -47.6875 4.5625 C-48.68136719 4.46066406 -49.67523438 4.35882812 -50.69921875 4.25390625 C-51.45847656 4.17011719 -52.21773438 4.08632813 -53 4 C-53 3.67 -53 3.34 -53 3 C-35.29212432 -0.35013864 -17.93871062 -0.32793181 0 0 Z " fill="#0E72B8" transform="translate(464,600)"/>
<path d="M0 0 C-5.75 3 -5.75 3 -8 3 C-8 3.66 -8 4.32 -8 5 C-8.721875 5.391875 -9.44375 5.78375 -10.1875 6.1875 C-15.53205222 9.63176698 -18.55369889 14.85322026 -20 21 C-20.43032669 24.32752619 -20.74875426 27.65446458 -21 31 C-21.33 31 -21.66 31 -22 31 C-22.42910827 22.78337133 -22.58803004 13.32459719 -17.078125 6.68359375 C-15 5 -15 5 -12 5 C-12 4.34 -12 3.68 -12 3 C-11.01 3 -10.02 3 -9 3 C-9 2.34 -9 1.68 -9 1 C-5.57367167 -0.61798838 -3.61944899 -1.34053666 0 0 Z " fill="#00132D" transform="translate(872,643)"/>
<path d="M0 0 C0.99 3.63 1.98 7.26 3 11 C-1 7 -1 7 -1.25 4.25 C-1.1675 3.5075 -1.085 2.765 -1 2 C-1.886875 2.721875 -2.77375 3.44375 -3.6875 4.1875 C-8.87177588 7.91036478 -14.90171713 10.20889594 -21 12 C-21.66 11.67 -22.32 11.34 -23 11 C-4.46067416 0 -4.46067416 0 0 0 Z " fill="#1074B8" transform="translate(915,620)"/>
<path d="M0 0 C0.33 0 0.66 0 1 0 C1.02578125 0.81082031 1.0515625 1.62164063 1.078125 2.45703125 C1.48003275 10.30336666 2.89238769 16.78744865 6 24 C6.33 24 6.66 24 7 24 C7.33 26.31 7.66 28.62 8 31 C8.66 31 9.32 31 10 31 C10 32.65 10 34.3 10 36 C6.73078764 33.31631821 5.53935934 30.03442052 3.9375 26.1875 C3.43089844 24.98480469 2.92429687 23.78210938 2.40234375 22.54296875 C-1.28005399 13.23952934 -1.28005399 13.23952934 -1.1875 7.8125 C-1.18105469 6.97332031 -1.17460938 6.13414062 -1.16796875 5.26953125 C-1 3 -1 3 0 0 Z " fill="#127AC1" transform="translate(852,661)"/>
<path d="M0 0 C0.99 0 1.98 0 3 0 C3.26554688 0.91523438 3.53109375 1.83046875 3.8046875 2.7734375 C4.15789063 3.96195312 4.51109375 5.15046875 4.875 6.375 C5.39707031 8.15003906 5.39707031 8.15003906 5.9296875 9.9609375 C6.77687419 13.06491558 6.77687419 13.06491558 9 15 C9 16.32 9 17.64 9 19 C9.99 18.67 10.98 18.34 12 18 C12.9765625 24.0546875 12.9765625 24.0546875 13 26 C12.34 26.66 11.68 27.32 11 28 C10.68546875 27.2265625 10.3709375 26.453125 10.046875 25.65625 C7.57373111 19.63727331 4.94966728 13.7976219 2 8 C0.64204443 4.94459998 0 3.35249669 0 0 Z " fill="#4EC8E0" transform="translate(762,458)"/>
<path d="M0 0 C0.66 0.99 1.32 1.98 2 3 C1.36474424 4.67889021 0.69313908 6.34416775 0 8 C-0.16757757 11.20870233 -0.16757757 11.20870233 0 14 C-0.33 13.34 -0.66 12.68 -1 12 C-1.99 12 -2.98 12 -4 12 C-4.09796875 12.6290625 -4.1959375 13.258125 -4.296875 13.90625 C-5.3504628 19.9371319 -6.91519111 24.69798472 -10 30 C-10.66 30.33 -11.32 30.66 -12 31 C-11.29937517 26.43263559 -9.68729793 22.4300495 -7.9375 18.1875 C-7.51500977 17.14819336 -7.51500977 17.14819336 -7.08398438 16.08789062 C-6.39325027 14.39032376 -5.69716272 12.69493688 -5 11 C-4.34 11 -3.68 11 -3 11 C-2.86722656 10.37351562 -2.73445312 9.74703125 -2.59765625 9.1015625 C-2.42105469 8.28429687 -2.24445312 7.46703125 -2.0625 6.625 C-1.88847656 5.81289063 -1.71445312 5.00078125 -1.53515625 4.1640625 C-1 2 -1 2 0 0 Z " fill="#4BC3DD" transform="translate(663,328)"/>
<path d="M0 0 C0.7425 0.0825 1.485 0.165 2.25 0.25 C0.93 0.58 -0.39 0.91 -1.75 1.25 C-1.8428125 2.0853125 -1.8428125 2.0853125 -1.9375 2.9375 C-3.40936736 7.12666094 -6.64251124 9.5907805 -10.375 11.8125 C-12.89518748 13.33787663 -14.14936188 14.80692076 -15.75 17.25 C-17.07 16.92 -18.39 16.59 -19.75 16.25 C-18.85796875 15.43015625 -17.9659375 14.6103125 -17.046875 13.765625 C-15.86454214 12.67712808 -14.68225277 11.58858392 -13.5 10.5 C-12.62021484 9.69175781 -12.62021484 9.69175781 -11.72265625 8.8671875 C-11.14902344 8.33867187 -10.57539062 7.81015625 -9.984375 7.265625 C-9.42459961 6.75032227 -8.86482422 6.23501953 -8.28808594 5.70410156 C-6.98341652 4.47067124 -5.7347866 3.17838586 -4.5 1.875 C-2.75 0.25 -2.75 0.25 0 0 Z " fill="#4AC6DF" transform="translate(917.75,490.75)"/>
<path d="M0 0 C0.99 0.33 1.98 0.66 3 1 C1.78184562 5.68520915 0.30440013 9.70543612 -2 14 C-5.03295882 10.04396675 -6.13243142 8.03239385 -6 3 C-5.34 2.67 -4.68 2.34 -4 2 C-4 2.66 -4 3.32 -4 4 C-3.34 4 -2.68 4 -2 4 C-1.34 2.68 -0.68 1.36 0 0 Z " fill="#42CEEE" transform="translate(678,466)"/>
<path d="M0 0 C0 0.66 0 1.32 0 2 C-1.32 2.33 -2.64 2.66 -4 3 C-4 3.66 -4 4.32 -4 5 C-6.20571604 6.58847863 -8.51217315 7.95817483 -10.8359375 9.3671875 C-13.12411569 11.09364686 -13.96204306 12.36518623 -15 15 C-15.66 15 -16.32 15 -17 15 C-17 15.66 -17 16.32 -17 17 C-17.66 17 -18.32 17 -19 17 C-17.55087938 12.21790196 -14.7320046 8.29517963 -11 5 C-10.01 5 -9.02 5 -8 5 C-8 4.34 -8 3.68 -8 3 C-2.25 0 -2.25 0 0 0 Z " fill="#1179C5" transform="translate(872,643)"/>
<path d="M0 0 C-0.64324219 0.38929688 -1.28648437 0.77859375 -1.94921875 1.1796875 C-9.70326221 5.98033637 -16.85523125 11.35461038 -24 17 C-24.33 16.01 -24.66 15.02 -25 14 C-23.68 13.67 -22.36 13.34 -21 13 C-20.95875 12.401875 -20.9175 11.80375 -20.875 11.1875 C-19.55023634 7.87559084 -17.16789339 7.39387309 -14 6 C-13.01 5.34 -12.02 4.68 -11 4 C-10.34 4 -9.68 4 -9 4 C-9 3.34 -9 2.68 -9 2 C-8.01 2 -7.02 2 -6 2 C-6 1.34 -6 0.68 -6 0 C-3.50907189 -1.24546405 -2.58919267 -0.7767578 0 0 Z " fill="#021921" transform="translate(400,507)"/>
<path d="M0 0 C9.13338455 -0.28994872 17.96301675 0.8258212 27 2 C27 2.66 27 3.32 27 4 C28.65 4 30.3 4 32 4 C32 4.33 32 4.66 32 5 C21.08698516 4.57915235 10.68441211 3.25907118 0 1 C0 0.67 0 0.34 0 0 Z " fill="#46BBD3" transform="translate(688,623)"/>
<path d="M0 0 C-2.39064268 2.20674709 -3.57013194 2.98131008 -6.875 3.125 C-7.90625 3.08375 -8.9375 3.0425 -10 3 C-10.86625 3.185625 -11.7325 3.37125 -12.625 3.5625 C-17.79370236 4.23251697 -22.83505939 3.54323809 -28 3 C-28 2.67 -28 2.34 -28 2 C-24.08488185 1.46705432 -20.16774466 0.95075145 -16.25 0.4375 C-15.13882813 0.28603516 -14.02765625 0.13457031 -12.8828125 -0.02148438 C-11.81289063 -0.16005859 -10.74296875 -0.29863281 -9.640625 -0.44140625 C-8.65610352 -0.57232666 -7.67158203 -0.70324707 -6.65722656 -0.83813477 C-4.14200979 -0.99134946 -2.37853466 -0.77228356 0 0 Z " fill="#0A2F3C" transform="translate(804,626)"/>
<path d="M0 0 C1.8046875 0.3125 1.8046875 0.3125 3.875 1 C7.05442363 1.98342635 7.05442363 1.98342635 10.1875 1.125 C10.785625 0.75375 11.38375 0.3825 12 0 C14.75 -0.125 14.75 -0.125 17 0 C14.43461521 2.56538479 11.93954104 3.37357879 8.5625 4.6875 C7.40878906 5.14511719 6.25507812 5.60273437 5.06640625 6.07421875 C2 7 2 7 -1 6 C-0.67 5.01 -0.34 4.02 0 3 C-0.66 2.67 -1.32 2.34 -2 2 C-1.34 1.34 -0.68 0.68 0 0 Z " fill="#42CEEF" transform="translate(834,610)"/>
<path d="M0 0 C1.98 0 3.96 0 6 0 C6 0.66 6 1.32 6 2 C7.0725 1.95875 8.145 1.9175 9.25 1.875 C12.65712165 1.98857072 14.26226767 2.10464685 17 4 C17.33 4.66 17.66 5.32 18 6 C20.01669827 7.13350534 20.01669827 7.13350534 22 8 C22 8.66 22 9.32 22 10 C17.04242102 8.45173401 12.36189599 6.48219062 7.625 4.375 C6.88894531 4.05015625 6.15289063 3.7253125 5.39453125 3.390625 C3.59529031 2.59615497 1.79749504 1.79841229 0 1 C0 0.67 0 0.34 0 0 Z " fill="#47BDD6" transform="translate(606,593)"/>
<path d="M0 0 C0.66 0.33 1.32 0.66 2 1 C0 6 -2 11 -4 16 C-2.35 16.33 -0.7 16.66 1 17 C-2.75 19 -2.75 19 -5 19 C-6.4002792 13.53891111 -5.42705634 9.30723432 -4 4 C-2.68 3.67 -1.36 3.34 0 3 C0 2.01 0 1.02 0 0 Z " fill="#49CCE8" transform="translate(657,517)"/>
<path d="M0 0 C0.99 0.33 1.98 0.66 3 1 C3.103125 1.763125 3.20625 2.52625 3.3125 3.3125 C3.75593985 6.02954673 3.75593985 6.02954673 5.5625 7.5 C7 9 7 9 7.1875 11.6875 C7.125625 12.450625 7.06375 13.21375 7 14 C7.66 14 8.32 14 9 14 C9.66 17.3 10.32 20.6 11 24 C11.66 24 12.32 24 13 24 C12.67 25.32 12.34 26.64 12 28 C8.94727698 23.093838 6.91335186 18.24907439 5.015625 12.796875 C3.75996268 9.33897414 2.27825109 6.01683505 0.734375 2.6796875 C0 1 0 1 0 0 Z " fill="#031F29" transform="translate(806,369)"/>
<path d="M0 0 C0.66 0 1.32 0 2 0 C1.41883429 3.37076113 0.47583979 4.70100591 -2 7 C-3.2065625 8.546875 -3.2065625 8.546875 -4.4375 10.125 C-6.98277394 12.9806732 -7.50407468 13.37572762 -11 14 C-11.33 14.99 -11.66 15.98 -12 17 C-12.66 16.67 -13.32 16.34 -14 16 C-6.28598342 5.79615674 -6.28598342 5.79615674 -2 2 C-1.34 2 -0.68 2 0 2 C0 1.34 0 0.68 0 0 Z " fill="#0F77C0" transform="translate(312,649)"/>
<path d="M0 0 C0 0.33 0 0.66 0 1 C-0.62044189 1.08040527 -1.24088379 1.16081055 -1.88012695 1.24365234 C-4.69204854 1.61267922 -7.50221801 1.99369625 -10.3125 2.375 C-11.77719727 2.56449219 -11.77719727 2.56449219 -13.27148438 2.7578125 C-14.20927734 2.88671875 -15.14707031 3.015625 -16.11328125 3.1484375 C-17.40939331 3.32125244 -17.40939331 3.32125244 -18.73168945 3.49755859 C-21.26452196 3.91516947 -21.26452196 3.91516947 -24 6 C-26.91796875 5.9765625 -26.91796875 5.9765625 -30.1875 5.625 C-31.27417969 5.51414062 -32.36085938 5.40328125 -33.48046875 5.2890625 C-34.31191406 5.19367187 -35.14335937 5.09828125 -36 5 C-36 4.67 -36 4.34 -36 4 C-31.50135882 3.32394521 -27.00089838 2.66084619 -22.5 2 C-21.2315625 1.80921875 -19.963125 1.6184375 -18.65625 1.421875 C-12.37483644 0.50583552 -6.34922684 -0.25653442 0 0 Z " fill="#042C3A" transform="translate(440,552)"/>
<path d="M0 0 C0 0.33 0 0.66 0 1 C-3.89519106 1.50508972 -7.79124657 2.00317733 -11.6875 2.5 C-12.79029297 2.64308594 -13.89308594 2.78617188 -15.02929688 2.93359375 C-16.09599609 3.06894531 -17.16269531 3.20429687 -18.26171875 3.34375 C-19.73064575 3.53227539 -19.73064575 3.53227539 -21.22924805 3.72460938 C-23.84232089 3.98432795 -26.37635968 4.05025329 -29 4 C-29 3.34 -29 2.68 -29 2 C-19.2648233 -0.10084738 -9.89613084 -0.21105492 0 0 Z " fill="#4EC1DF" transform="translate(440,551)"/>
<path d="M0 0 C2.25597827 2.25597827 2.96574192 4.04603867 4.125 7 C4.47820313 7.886875 4.83140625 8.77375 5.1953125 9.6875 C6 12 6 12 6 14 C4.02 14.66 2.04 15.32 0 16 C0 14 0 14 1 13 C0.34 12.34 -0.32 11.68 -1 11 C-0.9765625 8.3984375 -0.9765625 8.3984375 -0.625 5.375 C-0.51414062 4.37210937 -0.40328125 3.36921875 -0.2890625 2.3359375 C-0.19367187 1.56507813 -0.09828125 0.79421875 0 0 Z " fill="#42C8E6" transform="translate(826,416)"/>
<path d="M0 0 C0.66 0 1.32 0 2 0 C2.99 2.97 3.98 5.94 5 9 C4.01 9.495 4.01 9.495 3 10 C3 8.68 3 7.36 3 6 C2.01 6.495 2.01 6.495 1 7 C0.67 7.99 0.34 8.98 0 10 C-1.4375 11.6875 -1.4375 11.6875 -3 13 C-3.66 13 -4.32 13 -5 13 C-3.78184562 8.31479085 -2.30440013 4.29456388 0 0 Z " fill="#05202B" transform="translate(723,371)"/>
<path d="M0 0 C1.32 0.33 2.64 0.66 4 1 C2.71034824 2.37562854 1.37310707 3.70766393 0 5 C-0.66 5 -1.32 5 -2 5 C-2.2475 5.639375 -2.495 6.27875 -2.75 6.9375 C-4 9 -4 9 -5.8125 9.8125 C-8.38764878 10.03322704 -10.50222685 9.62444329 -13 9 C-9.59780735 6.25207517 -5.51535412 3 -1 3 C-0.67 2.01 -0.34 1.02 0 0 Z " fill="#0983DD" transform="translate(353,621)"/>
<path d="M0 0 C0.99 0 1.98 0 3 0 C3 0.66 3 1.32 3 2 C3.97839844 2.29003906 3.97839844 2.29003906 4.9765625 2.5859375 C11.41212603 4.50331779 17.78471647 6.4407656 24 9 C24 9.33 24 9.66 24 10 C21.03 9.67 18.06 9.34 15 9 C15 8.34 15 7.68 15 7 C8.01466204 5.43098141 8.01466204 5.43098141 1 4 C0.67 2.68 0.34 1.36 0 0 Z " fill="#1081D1" transform="translate(573,634)"/>
<path d="M0 0 C1.19908285 3.46848797 0.78945844 5.59994812 -0.3125 9.0625 C-0.57675781 9.91972656 -0.84101562 10.77695312 -1.11328125 11.66015625 C-2 14 -2 14 -4 17 C-4.66 17 -5.32 17 -6 17 C-6 18.32 -6 19.64 -6 21 C-6.66 21 -7.32 21 -8 21 C-7.42460686 15.79714932 -5.70581107 11.76043964 -3.4375 7.125 C-3.10814453 6.43664062 -2.77878906 5.74828125 -2.43945312 5.0390625 C-1.63304639 3.3561267 -0.81745506 1.67759707 0 0 Z " fill="#45B6CE" transform="translate(644,371)"/>
<path d="M0 0 C0.33 0.99 0.66 1.98 1 3 C2.65 3 4.3 3 6 3 C6 3.66 6 4.32 6 5 C3.46870029 7.45897686 1.85102311 8.88125259 -1.6875 9.375 C-4 9 -4 9 -6 7 C-5.625 4.875 -5.625 4.875 -5 3 C-4.67 3.99 -4.34 4.98 -4 6 C-3.34 6 -2.68 6 -2 6 C-1.855625 5.195625 -1.71125 4.39125 -1.5625 3.5625 C-1 1 -1 1 0 0 Z " fill="#0D7FD0" transform="translate(284,703)"/>
<path d="M0 0 C7.86379677 2.18340181 15.41675284 4.99285026 23 8 C23 8.99 23 9.98 23 11 C22.67 10.34 22.34 9.68 22 9 C20.906875 9.061875 19.81375 9.12375 18.6875 9.1875 C15 9 15 9 13.4375 7.625 C12.963125 7.08875 12.48875 6.5525 12 6 C7.73588428 4.25558902 3.56133101 3.54735972 -1 3 C-0.67 2.01 -0.34 1.02 0 0 Z " fill="#021B25" transform="translate(555,572)"/>
<path d="M0 0 C3.26835963 4.35781284 6 8.4280149 6 14 C4.02 13.34 2.04 12.68 0 12 C0 8.04 0 4.08 0 0 Z " fill="#45C4E4" transform="translate(850,472)"/>
<path d="M0 0 C-4 2 -8 4 -12 6 C-12.7425 6.4021875 -13.485 6.804375 -14.25 7.21875 C-16.51689674 8.23075747 -17.71084432 7.8175556 -20 7 C-14.547478 2.98235221 -6.90925138 -2.46758978 0 0 Z " fill="#001028" transform="translate(352,669)"/>
<path d="M0 0 C7.48620682 1.08165726 14.09176345 2.91302228 21 6 C16.95892396 7.61643042 13.38355459 6.35580816 9.375 5.25 C8.3540625 4.99476563 8.3540625 4.99476563 7.3125 4.734375 C3.52171829 3.71550877 2.24832586 3.3724888 0 0 Z " fill="#47B3CB" transform="translate(665,616)"/>
<path d="M0 0 C4.66658239 -0.42423476 7.80525342 1.05243909 12 3 C13.2684375 3.4640625 13.2684375 3.4640625 14.5625 3.9375 C17.63779359 5.27801259 20.25436426 7.08444018 23 9 C22.01 9.495 22.01 9.495 21 10 C18.375 9.0625 18.375 9.0625 16 8 C16 7.34 16 6.68 16 6 C15.21625 5.9175 14.4325 5.835 13.625 5.75 C8.822355 4.75634931 4.50190511 2.91286482 0 1 C0 0.67 0 0.34 0 0 Z " fill="#012140" transform="translate(560,628)"/>
<path d="M0 0 C5.95323426 -0.19599125 11.56529914 0.5614625 17.4375 1.5 C18.82098633 1.71462891 18.82098633 1.71462891 20.23242188 1.93359375 C22.48906007 2.28436653 24.74482853 2.63993865 27 3 C27 3.33 27 3.66 27 4 C18.28135909 4.32626931 9.5501883 3.80826437 1 2 C0.67 1.34 0.34 0.68 0 0 Z " fill="#54D4EC" transform="translate(725,555)"/>
<path d="M0 0 C0.66 0 1.32 0 2 0 C5.27318258 6.39758414 7.28623634 10.70097342 7 18 C4.43320517 15.43320517 3.66651446 12.94989318 2.375 9.5625 C1.92898438 8.40878906 1.48296875 7.25507812 1.0234375 6.06640625 C0 3 0 3 0 0 Z " fill="#4BC6DD" transform="translate(792,528)"/>
<path d="M0 0 C0.99 0.495 0.99 0.495 2 1 C2 1.66 2 2.32 2 3 C2.66 3 3.32 3 4 3 C4.67679658 4.725227 5.34102 6.45538939 6 8.1875 C6.37125 9.15042969 6.7425 10.11335937 7.125 11.10546875 C7.97636772 13.92182358 8.17072647 16.08164439 8 19 C5.27227952 16.27227952 4.2539869 13.02994255 2.875 9.5 C2.59785156 8.81035156 2.32070313 8.12070312 2.03515625 7.41015625 C0 2.26712592 0 2.26712592 0 0 Z " fill="#001C39" transform="translate(918,629)"/>
<path d="M0 0 C5.46937093 1.49743942 10.1535425 3.01756462 15 6 C17.96802672 7.10543852 20.97285624 8.07009309 24 9 C24 9.33 24 9.66 24 10 C18.4185702 10.3283194 13.86628419 8.62030687 9 6 C9 5.34 9 4.68 9 4 C7.88625 3.855625 6.7725 3.71125 5.625 3.5625 C2 3 2 3 0 2 C0 1.34 0 0.68 0 0 Z " fill="#04212C" transform="translate(637,607)"/>
<path d="M0 0 C7.57471026 2.59582767 14.93788653 5.18645873 22 9 C20.68 9.33 19.36 9.66 18 10 C18 9.34 18 8.68 18 8 C17.071875 8.226875 16.14375 8.45375 15.1875 8.6875 C14.135625 8.790625 13.08375 8.89375 12 9 C10.97753676 8.02297957 9.98058793 7.01904235 9 6 C6.73972655 4.7951851 6.73972655 4.7951851 4.3125 3.8125 C3.50425781 3.46832031 2.69601562 3.12414062 1.86328125 2.76953125 C1.24839844 2.51558594 0.63351562 2.26164063 0 2 C0 1.34 0 0.68 0 0 Z " fill="#041F2B" transform="translate(580,582)"/>
<path d="M0 0 C0.33 0 0.66 0 1 0 C1 2.33333333 1 4.66666667 1 7 C1.33 7.66 1.66 8.32 2 9 C1.67 9.99 1.34 10.98 1 12 C-1.5625 13.1875 -1.5625 13.1875 -4 14 C-4.56561146 8.34388537 -2.71391278 4.77357872 0 0 Z " fill="#41D9FB" transform="translate(596,480)"/>
<path d="M0 0 C2.57833439 2.57833439 3.3761471 5.10325781 4.6875 8.5 C5.14511719 9.6653125 5.60273437 10.830625 6.07421875 12.03125 C7 15 7 15 6 17 C1.44855724 13.51056055 0.7259813 9.42575497 0 4 C0 2.68 0 1.36 0 0 Z " fill="#092B34" transform="translate(737,401)"/>
<path d="M0 0 C0.66 0 1.32 0 2 0 C5.72731977 7.37484982 8.7177641 13.67404102 9 22 C6.54958797 18.32438195 5.03953056 14.5142466 3.375 10.4375 C3.05015625 9.65697266 2.7253125 8.87644531 2.390625 8.07226562 C2.08382812 7.32525391 1.77703125 6.57824219 1.4609375 5.80859375 C1.18040527 5.12595459 0.89987305 4.44331543 0.61083984 3.73999023 C0 2 0 2 0 0 Z " fill="#50CBE5" transform="translate(737,399)"/>
<path d="M0 0 C-0.99 0.495 -0.99 0.495 -2 1 C-1.67 1.66 -1.34 2.32 -1 3 C-10.405 3.495 -10.405 3.495 -20 4 C-20 3.67 -20 3.34 -20 3 C-18.0995695 2.52489237 -16.19888189 2.05078827 -14.296875 1.58203125 C-12.80216731 1.20327029 -11.31204941 0.80574057 -9.828125 0.38671875 C-6.12692099 -0.63598236 -3.66290967 -1.14263333 0 0 Z " fill="#0A2E3A" transform="translate(830,620)"/>
<path d="M0 0 C8.00945568 -0.30372936 14.69065285 -0.50848663 22 3 C18.96143341 3.93979382 16.79304528 3.99875808 13.671875 3.44140625 C12.87265625 3.30283203 12.0734375 3.16425781 11.25 3.02148438 C10.425 2.87001953 9.6 2.71855469 8.75 2.5625 C7.90953125 2.41490234 7.0690625 2.26730469 6.203125 2.11523438 C4.13411456 1.7508064 2.06687061 1.37637459 0 1 C0 0.67 0 0.34 0 0 Z " fill="#46B4C9" transform="translate(486,553)"/>
<path d="M0 0 C4.21747256 4.21747256 5.46291371 11.32460448 7 17 C6.34 17 5.68 17 5 17 C4.67 15.35 4.34 13.7 4 12 C3.34 12 2.68 12 2 12 C2 11.34 2 10.68 2 10 C1.34 10 0.68 10 0 10 C0 6.7 0 3.4 0 0 Z " fill="#07262F" transform="translate(786,516)"/>
<path d="M0 0 C3.27875789 3.27875789 4.26611678 7.92187524 5.7890625 12.234375 C7.27800741 16.48379111 7.27800741 16.48379111 10 20 C8.1875 19.875 8.1875 19.875 6 19 C3.61517162 15.25241255 2.60854263 12.43651689 3 8 C2.34 8 1.68 8 1 8 C0.67 5.36 0.34 2.72 0 0 Z " fill="#49BFD7" transform="translate(866,508)"/>
<path d="M0 0 C-1.87383903 0.79441072 -3.74912886 1.58539974 -5.625 2.375 C-7.19121094 3.03628906 -7.19121094 3.03628906 -8.7890625 3.7109375 C-17.70846052 7.29171773 -17.70846052 7.29171773 -22 6 C-19.09053687 4.79428057 -16.17150084 3.61371775 -13.25 2.4375 C-12.425 2.09525391 -11.6 1.75300781 -10.75 1.40039062 C-9.95078125 1.08134766 -9.1515625 0.76230469 -8.328125 0.43359375 C-7.22839355 -0.01415405 -7.22839355 -0.01415405 -6.10644531 -0.47094727 C-3.69441726 -1.07674986 -2.32784287 -0.7935828 0 0 Z " fill="#0B3A45" transform="translate(380,564)"/>
<path d="M0 0 C0.99 0 1.98 0 3 0 C2.72414063 0.68449219 2.44828125 1.36898438 2.1640625 2.07421875 C0.87623368 5.31107709 -0.37664963 8.56021876 -1.625 11.8125 C-2.07101562 12.97394531 -2.51703125 14.13539063 -2.9765625 15.33203125 C-3.31429687 16.21246094 -3.65203125 17.09289062 -4 18 C-4.33 18 -4.66 18 -5 18 C-5.28773432 13.20922365 -4.44169975 9.99382444 -2.5 5.625 C-2.0359375 4.56539063 -1.571875 3.50578125 -1.09375 2.4140625 C-0.55234375 1.21910156 -0.55234375 1.21910156 0 0 Z " fill="#4BC0DB" transform="translate(664,500)"/>
<path d="M0 0 C2.72772048 2.72772048 3.7460131 5.97005745 5.125 9.5 C5.54072266 10.53447266 5.54072266 10.53447266 5.96484375 11.58984375 C8 16.73287408 8 16.73287408 8 19 C7.34 19 6.68 19 6 19 C2.82523652 12.62704304 0.40475235 7.15062486 0 0 Z " fill="#47B3CC" transform="translate(817,395)"/>
<path d="M0 0 C-0.9590625 0.433125 -0.9590625 0.433125 -1.9375 0.875 C-4.15206079 1.82823451 -4.15206079 1.82823451 -5 4 C-8.63 4 -12.26 4 -16 4 C-16 3.01 -16 2.02 -16 1 C-14.95199219 0.90912109 -14.95199219 0.90912109 -13.8828125 0.81640625 C-12.97273438 0.73261719 -12.06265625 0.64882813 -11.125 0.5625 C-10.22007812 0.48128906 -9.31515625 0.40007813 -8.3828125 0.31640625 C-1.84090909 -0.55227273 -1.84090909 -0.55227273 0 0 Z " fill="#0D353F" transform="translate(358,572)"/>
<path d="M0 0 C0 0.33 0 0.66 0 1 C-4.29 1.66 -8.58 2.32 -13 3 C-13 3.66 -13 4.32 -13 5 C-14.98 5.33 -16.96 5.66 -19 6 C-19 5.34 -19 4.68 -19 4 C-18.34 3.67 -17.68 3.34 -17 3 C-17.33 2.34 -17.66 1.68 -18 1 C-16.948125 1.020625 -15.89625 1.04125 -14.8125 1.0625 C-9.77724024 0.97995476 -5.07233858 -0.11796136 0 0 Z " fill="#0F7FCB" transform="translate(365,663)"/>
<path d="M0 0 C2.64 0 5.28 0 8 0 C8 0.66 8 1.32 8 2 C9.60875 1.87625 9.60875 1.87625 11.25 1.75 C15.61948047 2.0412987 16.20919994 2.8634371 19 6 C16.95749089 5.54543566 14.9160274 5.08617174 12.875 4.625 C11.73804688 4.36976563 10.60109375 4.11453125 9.4296875 3.8515625 C6.21601712 3.05363523 3.12433966 2.09209441 0 1 C0 0.67 0 0.34 0 0 Z " fill="#002141" transform="translate(508,610)"/>
<path d="M0 0 C0.33 0.66 0.66 1.32 1 2 C-5.7857936 1.45136137 -12.35009036 0.45732062 -19 -1 C-19 -1.33 -19 -1.66 -19 -2 C-12.35054491 -3.66236377 -6.40232885 -2.29231648 0 0 Z " fill="#082733" transform="translate(723,552)"/>
<path d="M0 0 C4.29 0 8.58 0 13 0 C12.34 0.66 11.68 1.32 11 2 C13.475 2.99 13.475 2.99 16 4 C12.06322574 5.31225809 10.2205738 4.3393954 6.3125 3.0625 C5.13300781 2.68222656 3.95351563 2.30195312 2.73828125 1.91015625 C1.83464844 1.60980469 0.93101562 1.30945313 0 1 C0 0.67 0 0.34 0 0 Z " fill="#0A2E39" transform="translate(688,545)"/>
<path d="M0 0 C0.66 0 1.32 0 2 0 C0.125 6.75 0.125 6.75 -1 9 C-8.75 8.25 -8.75 8.25 -11 6 C-8.36 6.33 -5.72 6.66 -3 7 C-2.67 6.01 -2.34 5.02 -2 4 C-1.34870203 2.65909241 -0.68486725 1.32407669 0 0 Z " fill="#06232F" transform="translate(589,490)"/>
<path d="M0 0 C0.99 0.33 1.98 0.66 3 1 C3 2.32 3 3.64 3 5 C3.66 5 4.32 5 5 5 C7.27678571 11.96428571 7.27678571 11.96428571 6 16 C5.18082358 14.27398621 4.36993984 12.5440353 3.5625 10.8125 C3.11003906 9.84957031 2.65757812 8.88664062 2.19140625 7.89453125 C1.09618578 5.23368414 0.45045204 2.83215245 0 0 Z " fill="#021922" transform="translate(849,467)"/>
<path d="M0 0 C1 2 1 2 0.0625 5 C-0.288125 5.99 -0.63875 6.98 -1 8 C-1 8.66 -1 9.32 -1 10 C-1.99 10.495 -1.99 10.495 -3 11 C-3.65213292 13.02463255 -3.65213292 13.02463255 -4 15 C-4.66 15 -5.32 15 -6 15 C-5.61471495 8.83543922 -3.52913975 5.01372252 0 0 Z " fill="#46B5CB" transform="translate(346,557)"/>
<path d="M0 0 C0.66 0 1.32 0 2 0 C2.86343824 2.12124966 3.71550648 4.24713072 4.5625 6.375 C5.27599609 8.15003906 5.27599609 8.15003906 6.00390625 9.9609375 C7 13 7 13 6 15 C3.37613513 11.93882432 3 11.26826873 3 7 C2.34 7 1.68 7 1 7 C0.67 4.69 0.34 2.38 0 0 Z " fill="#4CCCE6" transform="translate(797,352)"/>
<path d="M0 0 C-1.37899549 2.75799098 -3.37672362 3.43852596 -6 5 C-7.75149165 6.58245275 -7.75149165 6.58245275 -9 8 C-9.66 7.67 -10.32 7.34 -11 7 C-7.18275154 0.40657084 -7.18275154 0.40657084 -4 -0.6875 C-2 -1 -2 -1 0 0 Z " fill="#01132A" transform="translate(311,691)"/>
<path d="M0 0 C-6.45791576 3.45423401 -12.76340555 3.68441919 -20 4 C-16.76538003 1.84358669 -14.32927039 1.18899027 -10.5625 0.3125 C-9.42941406 0.04050781 -8.29632813 -0.23148438 -7.12890625 -0.51171875 C-4.25083111 -0.96085657 -2.68974913 -0.98469931 0 0 Z " fill="#022142" transform="translate(372,663)"/>
<path d="M0 0 C0.33 0.66 0.66 1.32 1 2 C0.38125 2.7425 -0.2375 3.485 -0.875 4.25 C-2.99476189 6.7996999 -2.99476189 6.7996999 -4.0625 9.1875 C-5 11 -5 11 -8 13 C-8.66 12.34 -9.32 11.68 -10 11 C-8.88200014 9.66079162 -7.75538103 8.32877444 -6.625 7 C-5.99851562 6.2575 -5.37203125 5.515 -4.7265625 4.75 C-4.15679688 4.1725 -3.58703125 3.595 -3 3 C-2.34 3 -1.68 3 -1 3 C-0.67 2.01 -0.34 1.02 0 0 Z " fill="#07232F" transform="translate(903,573)"/>
<path d="M0 0 C3.63 0.33 7.26 0.66 11 1 C11 1.33 11 1.66 11 2 C9.02 2.33 7.04 2.66 5 3 C5.33 3.66 5.66 4.32 6 5 C3.36 5 0.72 5 -2 5 C-1.67 4.360625 -1.34 3.72125 -1 3.0625 C0.07271225 1.23205433 0.07271225 1.23205433 0 0 Z " fill="#45C9E9" transform="translate(714,553)"/>
<path d="M0 0 C2.34211663 2.89399469 3.86862171 5.67155428 5.25 9.125 C5.60578125 9.99382812 5.9615625 10.86265625 6.328125 11.7578125 C7 14 7 14 6 16 C4.5 14.625 4.5 14.625 3 13 C3 12.34 3 11.68 3 11 C2.34 11 1.68 11 1 11 C0.4254048 7.26513121 0 3.78706732 0 0 Z " fill="#05252D" transform="translate(761,458)"/>
<path d="M0 0 C-9.21052632 4.05263158 -9.21052632 4.05263158 -13 5 C-13.99 4.34 -14.98 3.68 -16 3 C-3.625 -1.125 -3.625 -1.125 0 0 Z " fill="#021A25" transform="translate(396,560)"/>
<path d="M0 0 C0.66 0.33 1.32 0.66 2 1 C1.67 1.99 1.34 2.98 1 4 C0.34 4 -0.32 4 -1 4 C-1 4.99 -1 5.98 -1 7 C-0.34 7 0.32 7 1 7 C1 8.32 1 9.64 1 11 C-0.65 10.67 -2.3 10.34 -4 10 C-3.835 9.401875 -3.67 8.80375 -3.5 8.1875 C-2.8885876 5.88655664 -2.8885876 5.88655664 -3 3 C-1.5 1.3125 -1.5 1.3125 0 0 Z " fill="#3FC6E7" transform="translate(886,517)"/>
<path d="M0 0 C2.69725519 1.88807863 4.13216429 3.19824644 6 6 C5.67 6.66 5.34 7.32 5 8 C5.66 8 6.32 8 7 8 C7 9.65 7 11.3 7 13 C4 12 4 12 2.83203125 9.78515625 C2.32736328 8.43744141 2.32736328 8.43744141 1.8125 7.0625 C1.46832031 6.16660156 1.12414062 5.27070313 0.76953125 4.34765625 C0 2 0 2 0 0 Z " fill="#02161C" transform="translate(864,502)"/>
<path d="M0 0 C1.07353169 2.74563864 1.03945688 3.88379367 0.07421875 6.7265625 C-0.61220703 8.16128906 -0.61220703 8.16128906 -1.3125 9.625 C-1.76238281 10.58664062 -2.21226562 11.54828125 -2.67578125 12.5390625 C-4 15 -4 15 -6 17 C-6 15.68 -6 14.36 -6 13 C-5.34 13 -4.68 13 -4 13 C-4.20625 12.38125 -4.4125 11.7625 -4.625 11.125 C-4.74875 10.42375 -4.8725 9.7225 -5 9 C-4.34 8.34 -3.68 7.68 -3 7 C-2.35232207 4.42938689 -2.35232207 4.42938689 -2 2 C-1.34 2 -0.68 2 0 2 C0 1.34 0 0.68 0 0 Z " fill="#041F28" transform="translate(598,471)"/>
<path d="M0 0 C0.66 0.33 1.32 0.66 2 1 C1.37720331 2.58420129 0.75166599 4.16732531 0.125 5.75 C-0.22304688 6.63171875 -0.57109375 7.5134375 -0.9296875 8.421875 C-1.8646709 10.6740248 -2.87780794 12.83649459 -4 15 C-4.33 15 -4.66 15 -5 15 C-4.7242265 8.7950962 -3.89359206 4.89839001 0 0 Z " fill="#051F2C" transform="translate(608,449)"/>
<path d="M0 0 C0.66 0.33 1.32 0.66 2 1 C1.01 3.97 0.02 6.94 -1 10 C-1.66 10 -2.32 10 -3 10 C-3.33 11.65 -3.66 13.3 -4 15 C-5.3480932 11.339671 -4.6336844 9.33449773 -3.125 5.8125 C-2.75632812 4.93207031 -2.38765625 4.05164063 -2.0078125 3.14453125 C-1 1 -1 1 0 0 Z " fill="#4ECBE6" transform="translate(650,359)"/>
<path d="M0 0 C1.32 0.33 2.64 0.66 4 1 C4 1.99 4 2.98 4 4 C4.66 4 5.32 4 6 4 C6.33 6.64 6.66 9.28 7 12 C6.34 12 5.68 12 5 12 C4.35242375 10.56328432 3.70700547 9.12559584 3.0625 7.6875 C2.70285156 6.88699219 2.34320312 6.08648437 1.97265625 5.26171875 C1 3 1 3 0 0 Z " fill="#03131B" transform="translate(785,321)"/>
<path d="M0 0 C0 1.65 0 3.3 0 5 C-3.06890187 6.53445094 -5.70094266 5.54984289 -9 5 C-6.45523312 2.20075644 -3.92372883 0 0 0 Z " fill="#44C9E4" transform="translate(406,504)"/>
<path d="M0 0 C1.125 1.625 1.125 1.625 2 4 C1.375 7.1875 1.375 7.1875 0 10 C-2.0859375 10.67578125 -2.0859375 10.67578125 -4 11 C-3.52269162 9.5410574 -3.04308958 8.08286504 -2.5625 6.625 C-2.29566406 5.81289063 -2.02882813 5.00078125 -1.75390625 4.1640625 C-1 2 -1 2 0 0 Z " fill="#0B2D36" transform="translate(717,384)"/>
<path d="M0 0 C1.32 0 2.64 0 4 0 C2.16508812 4.74018901 0.08058541 9.36413251 -2 14 C-3.04449911 10.86650268 -2.93423645 10.01031744 -2 7 C-1.34 7 -0.68 7 0 7 C-0.2784375 5.824375 -0.2784375 5.824375 -0.5625 4.625 C-1 2 -1 2 0 0 Z " fill="#031C22" transform="translate(642,368)"/>
<path d="M0 0 C2.52259061 1.97420135 2.9929808 2.96745642 3.6875 6.1875 C3.790625 7.115625 3.89375 8.04375 4 9 C3.34 9 2.68 9 2 9 C1.67 7.68 1.34 6.36 1 5 C-0.32 5.33 -1.64 5.66 -3 6 C-2.625 3.5625 -2.625 3.5625 -2 1 C-1.34 0.67 -0.68 0.34 0 0 Z " fill="#44C9E3" transform="translate(804,367)"/>
<path d="M0 0 C5.80847514 -0.28334025 10.54046376 1.18015459 16 3 C16 3.66 16 4.32 16 5 C10.13190493 4.47606294 5.45126259 3.23891142 0 1 C0 0.67 0 0.34 0 0 Z " fill="#107CC8" transform="translate(496,671)"/>
<path d="M0 0 C1.60407328 -0.02708567 3.2082785 -0.04643483 4.8125 -0.0625 C5.70582031 -0.07410156 6.59914063 -0.08570313 7.51953125 -0.09765625 C10 0 10 0 13 1 C13.33 1.99 13.66 2.98 14 4 C9.23649415 3.28547412 4.65798604 2.20465156 0 1 C0 0.67 0 0.34 0 0 Z " fill="#00142A" transform="translate(664,668)"/>
<path d="M0 0 C0.33 0 0.66 0 1 0 C1.36972539 7.5177495 1.36972539 7.5177495 -0.4375 9.875 C-0.953125 10.24625 -1.46875 10.6175 -2 11 C-2.33 11.66 -2.66 12.32 -3 13 C-3.66 13 -4.32 13 -5 13 C-4.54554036 11.58208592 -4.08625056 10.16571954 -3.625 8.75 C-3.24214844 7.56664062 -3.24214844 7.56664062 -2.8515625 6.359375 C-2.04826333 4.13372042 -1.10288338 2.09068328 0 0 Z M1 6 C3 7 3 7 3 7 Z " fill="#4BC6DF" transform="translate(635,392)"/>
<path d="M0 0 C0.66 0 1.32 0 2 0 C1.67566492 5.35152885 -1.49704824 8.28280043 -5 12 C-5 8.55639368 -4.20408468 7.25204608 -2.5 4.3125 C-2.0359375 3.50425781 -1.571875 2.69601562 -1.09375 1.86328125 C-0.7328125 1.24839844 -0.371875 0.63351562 0 0 Z " fill="#1069AA" transform="translate(292,672)"/>
<path d="M0 0 C9.85828397 0.21056529 9.85828397 0.21056529 13.125 3.5625 C13.74375 4.366875 14.3625 5.17125 15 6 C4.44191344 2.92482916 4.44191344 2.92482916 0 1 C0 0.67 0 0.34 0 0 Z " fill="#012444" transform="translate(536,619)"/>
<path d="M0 0 C0.66 0.66 1.32 1.32 2 2 C0.6905332 3.33631236 -0.62265485 4.66897925 -1.9375 6 C-2.66839844 6.7425 -3.39929688 7.485 -4.15234375 8.25 C-6 10 -6 10 -7 10 C-7.1875 7.625 -7.1875 7.625 -7 5 C-4 3 -4 3 -1 3 C-0.67 2.01 -0.34 1.02 0 0 Z " fill="#4EC6E1" transform="translate(897,577)"/>
<path d="M0 0 C0.33 0.99 0.66 1.98 1 3 C-0.07107117 3.86949317 -1.15745944 4.72014205 -2.25 5.5625 C-2.85328125 6.03816406 -3.4565625 6.51382813 -4.078125 7.00390625 C-6 8 -6 8 -10 7 C-6.7 4.69 -3.4 2.38 0 0 Z " fill="#49C0D9" transform="translate(388,514)"/>
<path d="M0 0 C0.99 0.33 1.98 0.66 3 1 C3 2.98 3 4.96 3 7 C3.99 6.67 4.98 6.34 6 6 C6.99 6.66 7.98 7.32 9 8 C6 10 6 10 3 10 C2.01 6.7 1.02 3.4 0 0 Z " fill="#062836" transform="translate(870,516)"/>
<path d="M0 0 C-0.33 1.32 -0.66 2.64 -1 4 C-7.435 4.495 -7.435 4.495 -14 5 C-11.35493484 3.23662322 -9.40786033 2.3439149 -6.4375 1.375 C-5.65246094 1.11460937 -4.86742187 0.85421875 -4.05859375 0.5859375 C-2 0 -2 0 0 0 Z " fill="#001F3E" transform="translate(664,688)"/>
<path d="M0 0 C2.23495428 2.23495428 3.0024791 4.02414536 4.1875 6.9375 C4.55230469 7.81277344 4.91710937 8.68804687 5.29296875 9.58984375 C6 12 6 12 5 15 C1.10815152 10.57744491 0 5.80705928 0 0 Z " fill="#47B8CF" transform="translate(859,492)"/>
<path d="M0 0 C0.66 0.33 1.32 0.66 2 1 C2 1.66 2 2.32 2 3 C3.32 3.33 4.64 3.66 6 4 C5.67 6.64 5.34 9.28 5 12 C4.67 12 4.34 12 4 12 C4 9.69 4 7.38 4 5 C1.69 4.34 -0.62 3.68 -3 3 C-2.01 2.01 -1.02 1.02 0 0 Z " fill="#03202C" transform="translate(919,488)"/>
<path d="M0 0 C1.58409994 0.11487748 3.16728963 0.24234508 4.75 0.375 C6.07257812 0.47941406 6.07257812 0.47941406 7.421875 0.5859375 C9.99066382 0.99850055 11.75841015 1.71160957 14 3 C7.375 3.125 7.375 3.125 4 2 C4 2.66 4 3.32 4 4 C3.01 3.67 2.02 3.34 1 3 C0.67 2.01 0.34 1.02 0 0 Z " fill="#49CBE9" transform="translate(550,489)"/>
<path d="M0 0 C0.66 0.33 1.32 0.66 2 1 C2.73075648 3.3140622 3.40138258 5.64828869 4 8 C2.68 8 1.36 8 0 8 C-0.33 8.66 -0.66 9.32 -1 10 C-0.67 6.7 -0.34 3.4 0 0 Z " fill="#46CAE5" transform="translate(834,436)"/>
<path d="M0 0 C0.66 0 1.32 0 2 0 C1.67 1.98 1.34 3.96 1 6 C0.34 6 -0.32 6 -1 6 C-1.99 9.465 -1.99 9.465 -3 13 C-4.32757546 9.01727361 -3.3296542 6.9189808 -2 3 C-1.34 2.01 -0.68 1.02 0 0 Z " fill="#051C25" transform="translate(659,333)"/>
<path d="M0 0 C2.46301423 2.46301423 2.76766521 4.27360036 3.625 7.625 C3.88539063 8.62789062 4.14578125 9.63078125 4.4140625 10.6640625 C4.60742188 11.43492187 4.80078125 12.20578125 5 13 C4.34 12.67 3.68 12.34 3 12 C3 11.34 3 10.68 3 10 C2.01 10 1.02 10 0 10 C0 6.7 0 3.4 0 0 Z " fill="#0E74BC" transform="translate(940,682)"/>
<path d="M0 0 C0 2 0 2 -1.4375 3.5625 C-5.13603446 5.63728762 -8.81945139 5.74094891 -13 6 C-11.59719304 3.19438607 -9.9490995 2.99319493 -7.0625 1.875 C-6.16660156 1.52179687 -5.27070312 1.16859375 -4.34765625 0.8046875 C-2 0 -2 0 0 0 Z " fill="#022B50" transform="translate(678,682)"/>
<path d="M0 0 C0 0.99 0 1.98 0 3 C-1.6796875 4.421875 -1.6796875 4.421875 -3.875 5.75 C-4.59429687 6.19859375 -5.31359375 6.6471875 -6.0546875 7.109375 C-6.69664062 7.40328125 -7.33859375 7.6971875 -8 8 C-8.66 7.67 -9.32 7.34 -10 7 C-3.18421053 0 -3.18421053 0 0 0 Z " fill="#1177BF" transform="translate(328,638)"/>
<path d="M0 0 C0 0.66 0 1.32 0 2 C-1.78953185 2.83790789 -3.58169695 3.67019396 -5.375 4.5 C-6.87160156 5.19609375 -6.87160156 5.19609375 -8.3984375 5.90625 C-11 7 -11 7 -13 7 C-13 6.34 -13 5.68 -13 5 C-12.278125 4.731875 -11.55625 4.46375 -10.8125 4.1875 C-7.95860702 3.06767588 -7.95860702 3.06767588 -5.375 1.375 C-3 0 -3 0 0 0 Z " fill="#001028" transform="translate(915,618)"/>
<path d="M0 0 C3.3 0 6.6 0 10 0 C7.87079719 2.12920281 6.89769567 2.51084284 4.0625 3.25 C3.37285156 3.44078125 2.68320312 3.6315625 1.97265625 3.828125 C0 4 0 4 -3 2 C-2.01 2 -1.02 2 0 2 C0 1.34 0 0.68 0 0 Z " fill="#48C6E2" transform="translate(350,569)"/>
<path d="M0 0 C0.33 1.32 0.66 2.64 1 4 C1.66 4 2.32 4 3 4 C3.66 5.98 4.32 7.96 5 10 C4.34 10 3.68 10 3 10 C3 10.66 3 11.32 3 12 C2.01 11.67 1.02 11.34 0 11 C0.66 10.67 1.32 10.34 2 10 C1.01 7.03 0.02 4.06 -1 1 C-0.67 0.67 -0.34 0.34 0 0 Z " fill="#4AC9E2" transform="translate(800,545)"/>
<path d="M0 0 C1.125 1.6875 1.125 1.6875 2 4 C1.375 6.625 1.375 6.625 0 9 C-2.0859375 10.1484375 -2.0859375 10.1484375 -4 11 C-3.52269162 9.5410574 -3.04308958 8.08286504 -2.5625 6.625 C-2.29566406 5.81289063 -2.02882813 5.00078125 -1.75390625 4.1640625 C-1 2 -1 2 0 0 Z " fill="#06202A" transform="translate(661,512)"/>
<path d="M0 0 C0.53625 0.226875 1.0725 0.45375 1.625 0.6875 C-3 3.6875 -3 3.6875 -6.375 3.6875 C-6.375 4.3475 -6.375 5.0075 -6.375 5.6875 C-8.025 5.3575 -9.675 5.0275 -11.375 4.6875 C-3.62774725 -0.47733516 -3.62774725 -0.47733516 0 0 Z " fill="#4AC0DA" transform="translate(424.375,495.3125)"/>
<path d="M0 0 C1.95918968 0.05991406 3.91751529 0.14867138 5.875 0.25 C6.96554687 0.29640625 8.05609375 0.3428125 9.1796875 0.390625 C12 1 12 1 13.3828125 3.046875 C13.58648438 3.69140625 13.79015625 4.3359375 14 5 C12.41531323 4.54636829 10.83230076 4.08688548 9.25 3.625 C8.36828125 3.36976563 7.4865625 3.11453125 6.578125 2.8515625 C4.23919428 2.0790066 2.16557438 1.16374324 0 0 Z " fill="#021C27" transform="translate(564,491)"/>
<path d="M0 0 C1.37095624 3.69037278 0.60010967 5.70883835 -0.9375 9.25 C-1.31777344 10.14203125 -1.69804688 11.0340625 -2.08984375 11.953125 C-2.39019531 12.62859375 -2.69054687 13.3040625 -3 14 C-3.66 13.67 -4.32 13.34 -5 13 C-4.54554036 11.58208592 -4.08625056 10.16571954 -3.625 8.75 C-3.24214844 7.56664062 -3.24214844 7.56664062 -2.8515625 6.359375 C-2.04826333 4.13372042 -1.10288338 2.09068328 0 0 Z " fill="#46BBD5" transform="translate(629,405)"/>
<path d="M0 0 C0.66 0 1.32 0 2 0 C1.57476184 1.60746056 1.13429874 3.21089836 0.6875 4.8125 C0.44386719 5.70582031 0.20023438 6.59914063 -0.05078125 7.51953125 C-1.0200819 10.05247738 -1.95009604 11.2716496 -4 13 C-4 11.35 -4 9.7 -4 8 C-3.34 8 -2.68 8 -2 8 C-2.33 7.01 -2.66 6.02 -3 5 C-1.6875 2.3125 -1.6875 2.3125 0 0 Z " fill="#031E29" transform="translate(628,403)"/>
<path d="M0 0 C1.98 0 3.96 0 6 0 C2.2440786 3.42931954 -2.23466745 4.56429083 -7 6 C-6.67 5.01 -6.34 4.02 -6 3 C-4.35 3 -2.7 3 -1 3 C-0.67 2.01 -0.34 1.02 0 0 Z " fill="#001732" transform="translate(362,615)"/>
<path d="M0 0 C-1.11328125 1.51953125 -1.11328125 1.51953125 -3 3 C-5.91796875 3.07421875 -5.91796875 3.07421875 -9.1875 2.6875 C-10.27417969 2.56761719 -11.36085938 2.44773437 -12.48046875 2.32421875 C-13.31191406 2.21722656 -14.14335937 2.11023438 -15 2 C-15 1.67 -15 1.34 -15 1 C-9.91913204 0.15318867 -5.15171623 -0.09038099 0 0 Z " fill="#061F2A" transform="translate(419,555)"/>
<path d="M0 0 C3.74525799 3.74525799 3.68909949 7.98270909 4 13 C3.01 13.495 3.01 13.495 2 14 C-0.29612756 4.58997722 -0.29612756 4.58997722 0 0 Z " fill="#4ACCEA" transform="translate(856,486)"/>
<path d="M0 0 C2.74855776 2.37375443 3.6829917 4.66357897 5 8 C5.66 8.33 6.32 8.66 7 9 C6.67 10.32 6.34 11.64 6 13 C3.19438607 11.59719304 2.99319493 9.9490995 1.875 7.0625 C1.52179687 6.16660156 1.16859375 5.27070313 0.8046875 4.34765625 C0 2 0 2 0 0 Z " fill="#4DC5DE" transform="translate(726,374)"/>
<path d="M0 0 C1.32 0.33 2.64 0.66 4 1 C1.61042731 4.24299151 -0.2047869 6.50902342 -4 8 C-2.87548273 5.0280615 -1.77706209 2.66559313 0 0 Z " fill="#1080D3" transform="translate(299,692)"/>
<path d="M0 0 C-1.55500981 3.81684226 -4.03595495 6.19195732 -7 9 C-7.33 7.35 -7.66 5.7 -8 4 C-6.68 4 -5.36 4 -4 4 C-4 3.01 -4 2.02 -4 1 C-2 0 -2 0 0 0 Z " fill="#04202C" transform="translate(363,535)"/>
<path d="M0 0 C1.95582488 2.93373731 3.56224304 5.78216298 5 9 C4.67 9.66 4.34 10.32 4 11 C3.01 11 2.02 11 1 11 C0.4254048 7.26513121 0 3.78706732 0 0 Z " fill="#09262F" transform="translate(776,493)"/>
<path d="M0 0 C0.99 0.33 1.98 0.66 3 1 C3.8125 2.8125 3.8125 2.8125 4 5 C3.0625 7.25 3.0625 7.25 2 9 C0.4375 6.1875 0.4375 6.1875 -1 3 C-0.67 2.01 -0.34 1.02 0 0 Z " fill="#0A2632" transform="translate(803,359)"/>
<path d="M0 0 C2 0 2 0 3.625 1 C5.82559052 4.20085893 5.18792122 7.17893517 5 11 C1.71779105 9.35889552 1.25429211 6.30677012 0 3 C0 2.01 0 1.02 0 0 Z " fill="#0A2B35" transform="translate(794,341)"/>
<path d="M0 0 C1.98 0 3.96 0 6 0 C6 0.66 6 1.32 6 2 C0.25 5 0.25 5 -2 5 C-2 4.34 -2 3.68 -2 3 C-1.34 3 -0.68 3 0 3 C0 2.01 0 1.02 0 0 Z " fill="#001937" transform="translate(876,636)"/>
<path d="M0 0 C-3.75 3 -3.75 3 -6 3 C-6 3.66 -6 4.32 -6 5 C-7.32 5.33 -8.64 5.66 -10 6 C-10 5.34 -10 4.68 -10 4 C-9.01 4 -8.02 4 -7 4 C-7.33 3.01 -7.66 2.02 -8 1 C-3.375 -1.125 -3.375 -1.125 0 0 Z " fill="#01132C" transform="translate(336,632)"/>
<path d="M0 0 C0 0.66 0 1.32 0 2 C-3.90028225 4.60018816 -7.47434569 4.15085514 -12 4 C-8.30376141 2.00971768 -4.25699221 0 0 0 Z " fill="#021C24" transform="translate(842,615)"/>
<path d="M0 0 C2.4375 1.125 2.4375 1.125 5 3 C5.8125 6.1875 5.8125 6.1875 6 9 C5.34 9 4.68 9 4 9 C0 2.25 0 2.25 0 0 Z " fill="#07212C" transform="translate(842,453)"/>
<path d="M0 0 C0.33 0.66 0.66 1.32 1 2 C0.22265625 3.9453125 0.22265625 3.9453125 -0.9375 6.125 C-1.31777344 6.84945313 -1.69804688 7.57390625 -2.08984375 8.3203125 C-2.39019531 8.87460937 -2.69054687 9.42890625 -3 10 C-4.0625 8.125 -4.0625 8.125 -5 6 C-3.74821404 3.49642808 -2.00018842 1.93566621 0 0 Z " fill="#0B313A" transform="translate(614,438)"/>
<path d="M0 0 C0.66 0.66 1.32 1.32 2 2 C2.66 1.67 3.32 1.34 4 1 C3.67 2.98 3.34 4.96 3 7 C2.01 7.33 1.02 7.66 0 8 C-1.125 2.25 -1.125 2.25 0 0 Z " fill="#3CC5E6" transform="translate(616,434)"/>
<path d="M0 0 C0.66 0 1.32 0 2 0 C0.88059018 4.85077588 -0.1334716 7.777893 -4 11 C-3.39301257 6.87248551 -1.96189209 3.6678852 0 0 Z " fill="#50CAE6" transform="translate(655,348)"/>
<path d="M0 0 C0.66 0.33 1.32 0.66 2 1 C1.67 1.99 1.34 2.98 1 4 C0.01 4 -0.98 4 -2 4 C-1.67 5.32 -1.34 6.64 -1 8 C-2.32 7.34 -3.64 6.68 -5 6 C-5 5.34 -5 4.68 -5 4 C-3.37373596 2.61767557 -1.7074998 1.28062485 0 0 Z " fill="#49C8E4" transform="translate(672,316)"/>
<path d="M0 0 C6.625 -0.125 6.625 -0.125 10 1 C10.33 1.99 10.66 2.98 11 4 C7.37 3.01 3.74 2.02 0 1 C0 0.67 0 0.34 0 0 Z " fill="#1073BA" transform="translate(524,680)"/>
<path d="M0 0 C3.38946688 2.25964458 3.85336716 3.20729138 5 7 C5.125 9.8125 5.125 9.8125 5 12 C1.66226291 8.35883227 1.02135098 4.71392758 0 0 Z " fill="#00132B" transform="translate(929,654)"/>
<path d="M0 0 C4.87664009 -0.34833144 7.77050005 0.58314288 12 3 C12 3.33 12 3.66 12 4 C9.03 3.67 6.06 3.34 3 3 C3 2.34 3 1.68 3 1 C2.01 0.67 1.02 0.34 0 0 Z " fill="#1177C1" transform="translate(585,640)"/>
<path d="M0 0 C-2.22825644 2.22825644 -3.65761628 2.69239369 -6.625 3.625 C-7.44226563 3.88539063 -8.25953125 4.14578125 -9.1015625 4.4140625 C-9.72804688 4.60742188 -10.35453125 4.80078125 -11 5 C-11 4.34 -11 3.68 -11 3 C-7.14243493 0.84694043 -4.44870215 -0.39253254 0 0 Z " fill="#50CBE3" transform="translate(851,610)"/>
<path d="M0 0 C0.33 0.99 0.66 1.98 1 3 C-0.65 4.32 -2.3 5.64 -4 7 C-4.99 6.34 -5.98 5.68 -7 5 C-4.69 3.35 -2.38 1.7 0 0 Z " fill="#06222E" transform="translate(883,592)"/>
<path d="M0 0 C1.65 0.33 3.3 0.66 5 1 C3.35 2.65 1.7 4.3 0 6 C-0.99 5.34 -1.98 4.68 -3 4 C-2.01 3.67 -1.02 3.34 0 3 C0 2.01 0 1.02 0 0 Z " fill="#4BCEEE" transform="translate(884,586)"/>
<path d="M0 0 C0.33 0 0.66 0 1 0 C0.67 3.3 0.34 6.6 0 10 C-0.99 10 -1.98 10 -3 10 C-2.39009109 6.44219804 -1.4216319 3.3171411 0 0 Z " fill="#093343" transform="translate(656,523)"/>
<path d="M0 0 C0.66 0 1.32 0 2 0 C4.41685712 4.22949995 5.34833144 7.12335991 5 12 C2.65085508 9.65085508 2.26859643 8.04320554 1.375 4.875 C1.11460937 3.96492188 0.85421875 3.05484375 0.5859375 2.1171875 C0.39257812 1.41851562 0.19921875 0.71984375 0 0 Z " fill="#4FC9E5" transform="translate(774,486)"/>
<path d="M0 0 C0.99 0 1.98 0 3 0 C3.33 3.3 3.66 6.6 4 10 C1.7448078 7.7448078 1.02276532 5.9952413 0 3 C0 2.01 0 1.02 0 0 Z " fill="#4ABFD8" transform="translate(762,458)"/>
<path d="M0 0 C0.33 0.66 0.66 1.32 1 2 C-0.70625501 4.78388975 -1.47626739 5.85384206 -4.6875 6.75 C-5.8321875 6.87375 -5.8321875 6.87375 -7 7 C-5.625 5 -5.625 5 -4 3 C-3.34 3 -2.68 3 -2 3 C-2 2.34 -2 1.68 -2 1 C-1.34 0.67 -0.68 0.34 0 0 Z " fill="#00132A" transform="translate(292,705)"/>
<path d="M0 0 C2.31 0 4.62 0 7 0 C3.79663178 2.83374881 1.21912747 3.5205537 -3 4 C-3 3.34 -3 2.68 -3 2 C-2.01 2 -1.02 2 0 2 C0 1.34 0 0.68 0 0 Z " fill="#1074BB" transform="translate(339,669)"/>
<path d="M0 0 C1 2 1 2 0.1875 4.5 C-1 7 -1 7 -3 9 C-3.99 8.67 -4.98 8.34 -6 8 C-5.38125 7.236875 -4.7625 6.47375 -4.125 5.6875 C-1.94402948 3.00374191 -1.94402948 3.00374191 0 0 Z " fill="#0A343D" transform="translate(910,563)"/>
<path d="M0 0 C3.63 0.33 7.26 0.66 11 1 C11 1.33 11 1.66 11 2 C9.54263913 2.19491452 8.08405407 2.38069358 6.625 2.5625 C5.81289063 2.66691406 5.00078125 2.77132812 4.1640625 2.87890625 C2 3 2 3 0 2 C0 1.34 0 0.68 0 0 Z " fill="#021721" transform="translate(480,553)"/>
<path d="M0 0 C0.97791242 2.64036353 1.03638105 3.87266632 0.25 6.625 C-1 9 -1 9 -4 11 C-3.52269162 9.5410574 -3.04308958 8.08286504 -2.5625 6.625 C-2.29566406 5.81289063 -2.02882813 5.00078125 -1.75390625 4.1640625 C-1 2 -1 2 0 0 Z " fill="#164B59" transform="translate(673,484)"/>
<path d="M0 0 C0.33 0 0.66 0 1 0 C1.3636198 4.24223102 0.5393228 6.58168085 -2 10 C-2.66 10 -3.32 10 -4 10 C-3.52449439 8.51965236 -3.04448784 7.04074979 -2.5625 5.5625 C-2.29566406 4.73878906 -2.02882813 3.91507812 -1.75390625 3.06640625 C-1 1 -1 1 0 0 Z " fill="#4ABDD4" transform="translate(596,480)"/>
<path d="M0 0 C0.99 0.33 1.98 0.66 3 1 C2.40138258 3.35171131 1.73075648 5.6859378 1 8 C0.01 8.495 0.01 8.495 -1 9 C-0.67 6.03 -0.34 3.06 0 0 Z " fill="#46BFD8" transform="translate(683,455)"/>
<path d="M0 0 C2.18975773 3.28463659 2.99806563 6.20696275 4 10 C3.34 10 2.68 10 2 10 C2 9.34 2 8.68 2 8 C1.34 8 0.68 8 0 8 C0 5.36 0 2.72 0 0 Z " fill="#4ABCD3" transform="translate(790,333)"/>
<path d="M0 0 C1.32 0.66 2.64 1.32 4 2 C3.67 3.32 3.34 4.64 3 6 C1.02 4.68 -0.96 3.36 -3 2 C-2.01 1.34 -1.02 0.68 0 0 Z " fill="#041A25" transform="translate(779,313)"/>
<path d="M0 0 C3 1 3 1 4.1875 3.25 C4.99938294 5.99791147 5.16260121 8.15447889 5 11 C3 7.25 3 7.25 3 5 C2.34 5 1.68 5 1 5 C0.67 3.35 0.34 1.7 0 0 Z " fill="#011D3B" transform="translate(938,677)"/>
<path d="M0 0 C0.33 0.66 0.66 1.32 1 2 C3.01669827 3.13350534 3.01669827 3.13350534 5 4 C4.01 4.99 3.02 5.98 2 7 C1.34 6.01 0.68 5.02 0 4 C-0.66 4 -1.32 4 -2 4 C-1.34 2.68 -0.68 1.36 0 0 Z " fill="#43CCED" transform="translate(899,569)"/>
<path d="M0 0 C2.32590854 3.63423209 2.16265833 6.77088331 2 11 C-1.03333922 7.96666078 -0.6646334 5.2256192 -1 1 C-0.67 0.67 -0.34 0.34 0 0 Z " fill="#42BED9" transform="translate(797,535)"/>
<path d="M0 0 C0.33 0.66 0.66 1.32 1 2 C0.67 2.66 0.34 3.32 0 4 C-0.66 4 -1.32 4 -2 4 C-1.67 4.99 -1.34 5.98 -1 7 C-1.99 7.495 -1.99 7.495 -3 8 C-3 7.34 -3 6.68 -3 6 C-3.99 5.67 -4.98 5.34 -6 5 C-4.02 3.35 -2.04 1.7 0 0 Z " fill="#4BC8E2" transform="translate(894,511)"/>
<path d="M0 0 C1.08892712 2.83121051 0.96109941 4.16532751 0.25 7.1875 C-0.36875 8.5796875 -0.36875 8.5796875 -1 10 C-1.99 10.33 -2.98 10.66 -4 11 C-3.52269162 9.5410574 -3.04308958 8.08286504 -2.5625 6.625 C-2.29566406 5.81289063 -2.02882813 5.00078125 -1.75390625 4.1640625 C-1 2 -1 2 0 0 Z " fill="#072935" transform="translate(668,496)"/>
<path d="M0 0 C0.33 0 0.66 0 1 0 C1.9765625 6.0546875 1.9765625 6.0546875 2 8 C1.34 8.66 0.68 9.32 0 10 C-1 9 -1 9 -1.1328125 7.1875 C-1.13023437 6.465625 -1.12765625 5.74375 -1.125 5 C-1.12757813 4.278125 -1.13015625 3.55625 -1.1328125 2.8125 C-1 1 -1 1 0 0 Z " fill="#43CAE8" transform="translate(773,476)"/>
<path d="M0 0 C2.00720923 0.28674418 4.0085944 0.61866701 6 1 C3.37801226 3.15377564 1.35595828 4.40072174 -2 5 C-1.125 1.125 -1.125 1.125 0 0 Z " fill="#0D81D0" transform="translate(322,676)"/>
<path d="M0 0 C0.99 0 1.98 0 3 0 C1.87548273 2.9719385 0.77706209 5.33440687 -1 8 C-1.04241723 5.66705225 -1.04092937 3.33297433 -1 1 C-0.67 0.67 -0.34 0.34 0 0 Z " fill="#02151D" transform="translate(341,560)"/>
<path d="M0 0 C0.99 0.33 1.98 0.66 3 1 C3.33 3.31 3.66 5.62 4 8 C3.34 7.67 2.68 7.34 2 7 C2 6.01 2 5.02 2 4 C1.34 4 0.68 4 0 4 C0 2.68 0 1.36 0 0 Z " fill="#3A9FB6" transform="translate(747,424)"/>
<path d="M0 0 C2.79872437 2.52788007 4.45773019 4.20411134 5 8 C4.01 8.33 3.02 8.66 2 9 C0.50178941 5.62902617 0 3.79557881 0 0 Z " fill="#021013" transform="translate(819,396)"/>
<path d="M0 0 C0.99 0 1.98 0 3 0 C2.25 5.75 2.25 5.75 0 8 C0 5.36 0 2.72 0 0 Z " fill="#092937" transform="translate(652,346)"/>
<path d="M0 0 C2 3 2 3 2 5 C2.66 5 3.32 5 4 5 C4 6.65 4 8.3 4 10 C1.2027092 7.93243723 0.97307727 6.85559629 0.3125 3.3125 C0.209375 2.219375 0.10625 1.12625 0 0 Z " fill="#1683CF" transform="translate(858,687)"/>
<path d="M0 0 C2.50298434 2.93828597 3.46930939 5.17902761 4 9 C3.01 8.67 2.02 8.34 1 8 C0.67 5.36 0.34 2.72 0 0 Z " fill="#117FCC" transform="translate(921,639)"/>
<path d="M0 0 C1.32 0.33 2.64 0.66 4 1 C2.68 2.32 1.36 3.64 0 5 C-0.99 4.34 -1.98 3.68 -3 3 C-2.34 3 -1.68 3 -1 3 C-0.67 2.01 -0.34 1.02 0 0 Z " fill="#0C71BA" transform="translate(353,621)"/>
<path d="M0 0 C2.31 0 4.62 0 7 0 C4.37801226 2.15377564 2.35595828 3.40072174 -1 4 C-0.67 2.68 -0.34 1.36 0 0 Z " fill="#032847" transform="translate(345,623)"/>
<path d="M0 0 C0 0.99 0 1.98 0 3 C-1.65 3.66 -3.3 4.32 -5 5 C-5.66 4.34 -6.32 3.68 -7 3 C-2.25 0 -2.25 0 0 0 Z " fill="#06232F" transform="translate(868,603)"/>
<path d="M0 0 C2.31 0 4.62 0 7 0 C7 0.99 7 1.98 7 3 C4.0625 2.625 4.0625 2.625 1 2 C0.67 1.34 0.34 0.68 0 0 Z " fill="#082E3D" transform="translate(674,540)"/>
<path d="M0 0 C1.32 0.33 2.64 0.66 4 1 C1.03 3.475 1.03 3.475 -2 6 C-2 4.68 -2 3.36 -2 2 C-1.34 2 -0.68 2 0 2 C0 1.34 0 0.68 0 0 Z " fill="#05222A" transform="translate(907,495)"/>
<path d="M0 0 C0.66 0 1.32 0 2 0 C0.25 6.75 0.25 6.75 -2 9 C-1.125 2.25 -1.125 2.25 0 0 Z " fill="#021926" transform="translate(589,490)"/>
<path d="M0 0 C1 3 1 3 -0.4375 6.1875 C-1.2109375 7.5796875 -1.2109375 7.5796875 -2 9 C-2.66 9 -3.32 9 -4 9 C-2.80100302 5.9168649 -1.52299523 2.93720508 0 0 Z " fill="#54D0E7" transform="translate(606,459)"/>
<path d="M0 0 C0.95904856 3.83619425 0.91892116 5.32431536 0 9 C-0.99 9 -1.98 9 -3 9 C-2.01 6.03 -1.02 3.06 0 0 Z " fill="#3FA8BF" transform="translate(658,339)"/>
</svg>
